<svg width="20" height="20" viewBox="0 0 20 20" fill="none" xmlns="http://www.w3.org/2000/svg">
<g clip-path="url(#clip0_109_15)">
<path d="M0 0V20H20V0H0ZM8.87817 5.3479C9.44445 5.34203 9.99833 5.40482 10.2685 5.4126C11.2702 5.44143 11.4471 5.94805 11.4343 6.36475C11.4156 6.97503 11.0229 9.55658 11.7505 9.80835C12.8106 9.24145 13.5216 7.4807 14.0393 6.36475C14.3012 5.80028 14.2598 5.77223 14.8633 5.77148L17.2607 5.76782C17.8381 5.7671 17.8155 5.74685 18.0005 5.98267C18.4307 6.53113 16.643 8.81257 16.0657 9.44337C15.0002 10.6075 15.6218 11.0583 15.7935 11.2183C16.5886 11.9597 17.3569 12.7285 17.8345 13.4375C18.2141 14.0012 18.0573 14.526 17.5744 14.5459L15.0036 14.6521C14.1505 14.6872 12.824 13.1579 12.6123 12.8247C12.4411 12.5499 11.6158 12.2054 11.5381 12.9077L11.4294 13.8879C11.3505 14.5886 10.8332 14.5722 10.4248 14.5898C7.59698 14.7115 6.63397 13.6348 5.20993 12.0458C4.16625 10.5698 3.17027 9.08535 2.34495 7.30707C2.09792 6.77477 1.96707 6.38428 1.93357 5.9704C2.34883 5.64583 3.80645 5.78563 4.78513 5.7641C5.05282 5.7582 5.23343 5.91158 5.37473 6.21698C5.92608 7.40887 6.52738 8.5793 7.32298 9.6142C7.66947 9.93333 7.97577 10.0507 8.12865 9.40182C8.21742 9.39365 8.21028 8.31908 8.21532 7.50848C8.21877 6.95192 8.15338 6.28447 7.21068 5.9765C7.40137 5.47668 8.1501 5.35545 8.87817 5.3479Z" fill="black"/>
</g>
<defs>
<clipPath id="clip0_109_15">
<rect width="20" height="20" fill="white"/>
</clipPath>
</defs>
</svg>
