<svg width="20" height="20" viewBox="0 0 20 20" fill="none" xmlns="http://www.w3.org/2000/svg">
<g clip-path="url(#clip0_109_2)">
<path d="M15.3125 0H4.6875C2.09867 0 0 2.09867 0 4.6875V15.3125C0 17.9013 2.09867 20 4.6875 20H15.3125C17.9013 20 20 17.9013 20 15.3125V4.6875C20 2.09867 17.9013 0 15.3125 0Z" fill="#F4F2ED"/>
<path d="M3.25281 15.8624H5.73859V9.82548L2.1875 7.1622V14.7971C2.1875 15.3866 2.66516 15.8624 3.25281 15.8624Z" fill="#4285F4"/>
<path d="M14.2612 15.8624H16.7471C17.3365 15.8624 17.8124 15.3848 17.8124 14.7971V7.16211L14.2612 9.82547" fill="#34A853"/>
<path d="M14.2612 5.20898V9.82547L17.8124 7.16219V5.74156C17.8124 4.42414 16.3085 3.67305 15.2556 4.4632" fill="#FBBC04"/>
<path d="M5.73877 9.82545V5.20905L10.0001 8.40491L14.2614 5.20889V9.82538L10.0001 13.0215" fill="#EA4335"/>
<path d="M2.1875 5.74165V7.16212L5.73859 9.82548V5.20907L4.7443 4.46329C3.68961 3.67314 2.1875 4.42423 2.1875 5.74165Z" fill="#C5221F"/>
</g>
<defs>
<clipPath id="clip0_109_2">
<rect width="20" height="20" fill="white"/>
</clipPath>
</defs>
</svg>
