<svg width="113" height="143" viewBox="0 0 113 143" fill="none" xmlns="http://www.w3.org/2000/svg">
<path d="M6.6 143V122L60.6 71C64.8667 67.1333 68 63.6667 70 60.6C72 57.5333 73.3333 54.7333 74 52.2C74.8 49.6667 75.2 47.3333 75.2 45.2C75.2 39.6 73.2667 35.3333 69.4 32.4C65.6667 29.3333 60.1333 27.8 52.8 27.8C46.9333 27.8 41.4667 28.9333 36.4 31.2C31.4667 33.4667 27.2667 37 23.8 41.8L0.2 26.6C5.53333 18.6 13 12.2667 22.6 7.59999C32.2 2.93333 43.2667 0.599998 55.8 0.599998C66.2 0.599998 75.2667 2.33333 83 5.79999C90.8667 9.13333 96.9333 13.8667 101.2 20C105.6 26.1333 107.8 33.4667 107.8 42C107.8 46.5333 107.2 51.0667 106 55.6C104.933 60 102.667 64.6667 99.2 69.6C95.8667 74.5333 90.9333 80.0667 84.4 86.2L39.6 128.4L33.4 116.6H112.4V143H6.6Z" fill="#9976DC" fill-opacity="0.2"/>
</svg>
