<svg width="168" height="214" viewBox="0 0 168 214" fill="none" xmlns="http://www.w3.org/2000/svg">
<path d="M80.8 213.6C66.2 213.6 51.7 211.7 37.3 207.9C22.9 203.9 10.7 198.3 0.7 191.1L19.6 153.9C27.6 159.7 36.9 164.3 47.5 167.7C58.1 171.1 68.8 172.8 79.6 172.8C91.8 172.8 101.4 170.4 108.4 165.6C115.4 160.8 118.9 154.2 118.9 145.8C118.9 137.8 115.8 131.5 109.6 126.9C103.4 122.3 93.4 120 79.6 120H57.4V87.9L115.9 21.6L121.3 39H11.2V-1.43051e-05H158.2V31.5L100 97.8L75.4 83.7H89.5C115.3 83.7 134.8 89.5 148 101.1C161.2 112.7 167.8 127.6 167.8 145.8C167.8 157.6 164.7 168.7 158.5 179.1C152.3 189.3 142.8 197.6 130 204C117.2 210.4 100.8 213.6 80.8 213.6Z" fill="#9976DC" fill-opacity="0.2"/>
</svg>
