<svg width="100" height="50" viewBox="0 0 100 50" fill="none" xmlns="http://www.w3.org/2000/svg">
<path d="M0 50C5.74026e-07 43.4339 1.29329 36.9321 3.80603 30.8658C6.31876 24.7995 10.0017 19.2876 14.6447 14.6447C19.2876 10.0017 24.7996 6.31876 30.8658 3.80602C36.9321 1.29329 43.4339 -8.61039e-07 50 0C56.5661 8.6104e-07 63.0679 1.29329 69.1342 3.80603C75.2005 6.31876 80.7124 10.0017 85.3553 14.6447C89.9983 19.2876 93.6812 24.7996 96.194 30.8658C98.7067 36.9321 100 43.4339 100 50L75 50C75 46.717 74.3534 43.4661 73.097 40.4329C71.8406 37.3998 69.9991 34.6438 67.6777 32.3223C65.3562 30.0009 62.6002 28.1594 59.5671 26.903C56.534 25.6466 53.2831 25 50 25C46.717 25 43.4661 25.6466 40.4329 26.903C37.3998 28.1594 34.6438 30.0009 32.3223 32.3223C30.0009 34.6438 28.1594 37.3998 26.903 40.4329C25.6466 43.4661 25 46.7169 25 50H0Z" fill="white"/>
</svg>
