<svg width="192" height="192" viewBox="0 0 192 192" fill="none" xmlns="http://www.w3.org/2000/svg">
<circle cx="95.57" cy="95.57" r="95.57" fill="#F0B55C"/>
<path d="M89.1503 7.4304C69.4389 9.48366 53.4982 16.0541 38.8267 28.187C24.7525 39.8346 14.2622 56.4474 9.63304 74.5534C7.54245 82.7291 7.05713 86.9476 7.05713 96.43C7.05713 105.912 7.54245 110.168 9.63304 118.307C13.6649 134.061 21.318 147.5 32.9656 159.185C57.306 183.6 93.2194 191.963 125.624 180.726L127.826 179.979L130.887 181.51C135.629 183.862 139.399 184.683 144.402 184.422C148.844 184.198 151.233 183.563 156.572 181.024C161.724 178.635 164.598 178 170.721 178.038C175.051 178.038 176.694 178.224 178.934 178.859C182.107 179.755 183.152 179.531 184.123 177.739C186.139 174.155 179.158 171.505 168.854 171.953C163.217 172.214 158.998 173.259 153.66 175.761C151.644 176.731 149.068 177.739 147.948 178.038C144.551 178.934 139.399 178.635 136.263 177.403C135.255 176.992 135.33 176.918 139.213 174.753C155.975 165.457 168.63 152.241 176.881 135.479C181.062 126.93 183.6 118.829 185.131 109.048C186.064 103.112 186.064 89.7102 185.131 83.7371C180.987 57.194 165.98 34.4961 143.282 20.4593C133.314 14.2622 121.592 10.0063 109.496 8.13971C105.726 7.54239 92.3981 7.09441 89.1503 7.4304ZM104.494 13.5902C121.554 15.2328 137.309 21.9526 151.121 33.4508L152.241 34.3841L151.42 36.1014C150.935 37.0347 150.412 37.8187 150.225 37.8187C150.039 37.8187 146.866 36.3254 143.207 34.4961C125.288 25.5364 104.531 19.3766 82.7291 16.5394C79.4813 16.0914 76.6814 15.7181 76.4574 15.6434C75.8974 15.4941 82.4678 14.2622 86.7237 13.7395C91.6888 13.1422 99.2299 13.0675 104.494 13.5902ZM68.655 18.6673C68.543 19.0407 68.207 20.9073 67.9083 22.8485C64.8471 41.8879 69.9989 67.0496 81.5345 89.2995C82.7291 91.6515 83.6251 93.6674 83.5505 93.8167C83.4385 93.966 82.3558 94.4887 81.0865 94.9367C78.2866 96.0193 78.66 96.3926 75.1507 89.1502C63.8018 65.6684 59.21 41.4772 62.3459 21.6912C62.5325 20.3473 62.6819 20.2353 65.4071 19.19C68.767 17.846 68.9163 17.846 68.655 18.6673ZM82.6545 22.5499C96.542 24.3791 110.728 27.851 123.421 32.4802C129.88 34.8321 139.623 39.1253 144.103 41.5892L147.164 43.2691L145.671 45.5464L144.178 47.8237L139.25 45.3224C121.928 36.512 99.9765 30.0536 79.4439 27.739C77.3907 27.515 75.1881 27.2537 74.5534 27.1417L73.4335 26.9924L73.6948 25.0138C73.8441 23.9685 73.9935 22.7739 73.9935 22.4005C74.0308 21.5419 75.4121 21.5792 82.6545 22.5499ZM55.7008 26.8057C54.5435 39.088 56.5967 55.4394 61.1886 70.2975C63.1298 76.5693 67.0124 86.1263 70.1483 92.4354C72.1269 96.3553 72.7615 97.9979 72.4255 98.1472C72.1642 98.2219 70.8949 98.6325 69.6629 99.0059L67.3857 99.7152L64.5858 93.854C57.2687 78.7346 52.6769 63.7271 50.6983 48.4583C49.989 43.2318 49.541 31.2856 49.9143 28.747C50.1756 27.0297 50.2503 26.955 53.0502 25.3124C54.5808 24.4165 55.8874 23.6698 55.9248 23.7445C55.9621 23.7818 55.8501 25.1631 55.7008 26.8057ZM44.5385 46.965C46.3304 63.2418 51.1463 79.5932 58.9113 95.9446C60.2553 98.7445 61.2632 101.096 61.1886 101.171C60.9646 101.432 56.0741 102.515 55.9248 102.328C55.5141 101.88 52.0796 94.638 50.3623 90.4942C43.4559 74.0681 39.648 58.1273 38.3787 40.2079L38.1174 36.8107L40.8799 34.3468L43.6052 31.8829L43.8665 37.5573C44.0158 40.6559 44.3145 44.9118 44.5385 46.965ZM81.8705 34.1228C100.985 36.6614 120.472 42.5225 136.375 50.5116C138.429 51.5569 140.108 52.5275 140.108 52.6768C140.108 52.8261 139.287 53.7968 138.317 54.8794L136.562 56.8207L131.933 54.5807C116.291 46.965 98.3339 41.7759 79.1079 39.3119C76.084 38.9386 73.5081 38.528 73.3961 38.4533C73.3215 38.3413 73.1348 37.072 73.0228 35.5787L72.7988 32.8908L74.4414 33.1148C75.3374 33.2268 78.6973 33.6748 81.8705 34.1228ZM159.484 45.2477C151.905 58.6499 136.226 75.1507 120.173 86.6116C108.675 94.8247 92.9581 103.038 79.8173 107.742C62.5699 113.901 47.0771 116.44 30.539 115.768C24.2672 115.544 15.7555 114.349 14.8222 113.603C14.5982 113.379 14.2622 112.408 14.1502 111.437C14.0009 110.467 13.8142 109.235 13.7022 108.712L13.5156 107.742L16.4275 108.414C24.0059 110.243 37.4081 110.915 46.4051 109.869C63.6152 107.966 79.4813 103 96.6167 94.2274C111.587 86.5743 123.645 78.0253 134.807 67.1616C142.946 59.2473 149.255 51.4075 154.145 43.1571L156.721 38.864L158.7 40.9919L160.641 43.1571L159.484 45.2477ZM33.5629 52.1168C35.4668 67.0123 40.656 84.297 47.7117 99.2672L49.6903 103.486L47.5997 103.71C46.4051 103.822 45.0985 104.008 44.6505 104.12C43.9412 104.27 43.6425 103.896 42.4479 101.395C35.3175 86.1636 30.0537 68.1696 27.6271 50.8102C27.4404 49.5409 27.6271 49.1303 29.9043 46.1437L32.4056 42.8958L32.7042 45.3224C32.8536 46.629 33.2269 49.6903 33.5629 52.1168ZM81.3852 45.6584C98.2966 48.1223 114.237 52.7888 128.162 59.3592L132.455 61.3752L130.29 63.4658C129.133 64.5857 127.938 65.4444 127.677 65.3324C127.453 65.2204 125.176 64.1751 122.637 63.0551C110.243 57.418 93.9288 52.9008 79.4813 51.0342L74.4788 50.3996L74.2174 48.6823C74.1055 47.749 73.9188 46.517 73.8068 45.9197C73.6201 44.9864 73.6948 44.9118 74.9268 44.9118C75.6361 44.9118 78.548 45.2477 81.3852 45.6584ZM166.54 51.1089L168.145 53.5355L165.158 57.9033C154.556 73.5454 139.287 88.1049 121.256 99.8645C98.4086 114.76 72.6868 124.317 48.4957 126.856C38.1547 127.938 19.2647 127.266 18.3314 125.81C17.8834 125.101 16.4275 120.658 16.6141 120.509C16.6888 120.434 18.3314 120.621 20.2353 120.92C25.4245 121.741 34.6082 122.114 41.6266 121.778C86.313 119.538 136.263 91.0915 161.126 53.7968C163.03 50.9595 164.636 48.645 164.748 48.645C164.86 48.645 165.644 49.7649 166.54 51.1089ZM80.9372 57.2687C85.3051 57.866 93.9661 59.6579 98.8566 60.9645C107.966 63.3911 123.757 69.3642 122.936 70.0362C122.824 70.1109 121.741 70.9695 120.546 71.9401C119.352 72.9108 118.157 73.6201 117.933 73.5081C107.07 68.8043 95.31 65.3324 83.3638 63.3164L77.2413 62.2711L76.5694 60.2179C76.2334 59.0979 75.9347 57.7913 75.9347 57.3433C75.8974 56.634 76.0467 56.522 76.9427 56.6713C77.5027 56.7833 79.2946 57.0447 80.9372 57.2687ZM23.0726 60.1059C24.4165 69.7749 29.755 87.1716 35.0562 99.3419C36.1761 101.88 37.0721 104.12 37.0721 104.344C37.0721 105.016 31.3976 104.419 30.875 103.71C30.1283 102.664 25.3125 90.2328 23.4459 84.4837C21.542 78.5852 18.7421 68.0576 18.7047 66.5643C18.6674 65.4817 22.1019 57.9033 22.5126 58.1646C22.6619 58.2766 22.9232 59.1353 23.0726 60.1059ZM172.811 62.6818L174.081 65.519L172.699 67.423C163.964 79.5559 150.897 92.6594 137.682 102.552C105.166 126.93 64.3245 140.743 29.8297 139.026C25.3125 138.802 24.6032 138.69 24.1179 138.055C23.5952 137.346 21.3926 133.202 21.3926 132.903C21.3926 132.829 22.6246 132.941 24.1179 133.09C28.7097 133.65 43.1199 133.501 49.1303 132.866C77.1293 129.805 106.846 117.971 131.895 99.8645C146.119 89.5982 160.193 75.5987 169.003 62.9058C170.198 61.2258 171.243 59.8446 171.318 59.8446C171.43 59.8446 172.102 61.1139 172.811 62.6818ZM87.2837 70.1109C90.7929 70.8202 95.9447 72.0895 98.7446 72.8734C104.27 74.5161 112.483 77.428 112.483 77.8013C112.483 77.9133 111.288 78.8092 109.87 79.7799L107.256 81.4971L102.291 79.8545C97.2513 78.1746 90.6062 76.4573 84.7077 75.2627L81.3852 74.5907L80.3026 71.6788L79.2573 68.8043H80.0786C80.5266 68.8043 83.7744 69.4016 87.2837 70.1109ZM177.441 75.8973L178.262 79.2572L176.843 81.0492C157.431 105.166 128.2 126.146 96.8033 138.428C76.9427 146.194 53.9462 150.897 37.6321 150.487L32.8162 150.375L30.8376 147.948C29.755 146.604 28.859 145.41 28.859 145.298C28.859 145.148 32.2562 145.036 36.4374 145.036C85.5664 144.812 140.482 117.373 173.035 76.7186C174.902 74.4414 176.47 72.5375 176.507 72.5375C176.582 72.5375 176.993 74.0681 177.441 75.8973ZM16.6888 82.9531C17.9581 87.2089 22.0646 98.5579 23.7819 102.515C24.3792 103.896 24.3792 103.896 23.5579 103.747C23.0726 103.635 21.6913 103.374 20.4593 103.15C19.2274 102.926 16.9874 102.366 15.5315 101.955L12.8063 101.171V96.6539C12.8063 94.1527 12.9929 90.5315 13.1796 88.5902C13.6649 84.185 14.7102 78.1373 15.0462 78.1373C15.1582 78.1373 15.9048 80.3025 16.6888 82.9531ZM91.6142 82.9531C99.1552 84.8944 100.387 85.3423 99.7152 85.865C98.4833 86.873 89.6729 91.2408 89.3369 91.0168C88.9636 90.7928 84.4838 82.1691 84.4838 81.6838C84.4838 81.2731 86.0517 81.5718 91.6142 82.9531ZM179.867 91.2035L180.128 94.9367L176.47 98.9312C168.033 108.003 155.788 118.419 143.655 126.744C132.791 134.21 115.544 143.431 103.336 148.284C84.8944 155.639 65.7431 160.268 48.197 161.612L44.9118 161.873L42.9705 160.342C41.8879 159.521 40.5066 158.326 39.9093 157.692L38.7894 156.535H41.0293C44.3145 156.535 51.4822 155.863 57.418 155.004C98.2593 149.18 139.362 128.274 169.377 98.0726C172.475 94.974 175.947 91.3155 177.067 89.9715C178.187 88.6276 179.232 87.5076 179.344 87.5076C179.494 87.4703 179.718 89.1502 179.867 91.2035ZM179.531 105.838C178.747 111.101 178.038 114.685 177.814 114.536C177.664 114.424 177.329 112.744 177.067 110.803L176.582 107.219L178.038 105.726C178.822 104.942 179.531 104.27 179.606 104.27C179.68 104.27 179.643 104.979 179.531 105.838ZM171.99 117.224C172.326 119.874 172.737 123.682 172.923 125.736L173.222 129.469L170.833 134.21C169.489 136.861 168.294 138.988 168.145 138.988C167.996 138.988 167.734 136.189 167.622 132.717C167.473 129.282 167.137 124.354 166.801 121.741L166.241 116.963L167.846 115.507C169.227 114.237 171.206 112.52 171.318 112.483C171.355 112.483 171.654 114.611 171.99 117.224ZM161.35 127.602C161.574 130.514 161.761 136.338 161.761 140.594V148.284L159.521 150.935C158.252 152.353 157.132 153.548 156.983 153.548C156.087 153.511 155.975 152.316 155.975 141.975C155.975 135.927 155.9 129.73 155.788 128.237L155.601 125.512L157.991 123.645C159.297 122.637 160.529 121.928 160.678 122.077C160.828 122.226 161.126 124.728 161.35 127.602ZM150.151 141.116C150.151 146.306 150.113 150.561 150.001 150.561C149.889 150.561 148.658 150.039 147.202 149.404L144.588 148.209V140.706L144.626 133.202L147.127 131.447L149.628 129.73L149.852 130.701C150.001 131.261 150.113 135.965 150.151 141.116ZM138.541 142.722L138.429 144.626L135.741 142.834C134.285 141.863 133.09 140.855 133.127 140.668C133.127 140.444 134.359 139.586 135.815 138.764L138.429 137.197L138.541 139.026C138.615 140.034 138.615 141.714 138.541 142.722ZM140.034 152.428C142.348 153.697 146.082 155.564 148.322 156.535L152.428 158.326L150.113 160.23C148.807 161.276 147.612 162.134 147.388 162.134C146.679 162.134 137.309 157.393 133.389 155.079C129.506 152.764 121.442 147.202 121.442 146.828C121.442 146.716 122.637 146.007 124.13 145.298L126.818 143.954L131.298 147.015C133.799 148.695 137.719 151.121 140.034 152.428ZM118.531 152.204C123.309 155.863 130.887 160.716 136.525 163.628C139.325 165.121 141.602 166.353 141.602 166.428C141.602 166.651 136.338 169.601 135.965 169.601C135.33 169.601 126.258 164.374 122.226 161.686C118.568 159.26 114.349 156.161 110.877 153.399L109.422 152.241L111.997 151.084C113.379 150.412 114.76 149.852 114.984 149.852C115.245 149.815 116.851 150.897 118.531 152.204ZM106.248 157.206C112.371 162.321 119.539 167.361 125.997 171.094C127.602 172.027 128.909 172.849 128.909 172.961C128.909 173.073 127.453 173.707 125.698 174.379L122.488 175.611L121.144 174.753C118.307 173.073 111.811 168.667 108.936 166.502C104.456 163.105 97.4753 157.206 97.7366 156.982C97.886 156.833 102.067 155.041 103.075 154.705C103.15 154.668 104.568 155.825 106.248 157.206ZM94.1154 162.06C99.4539 166.838 108.078 173.446 113.416 176.88L114.536 177.59L113.416 177.888C112.781 178.038 110.989 178.374 109.422 178.598L106.547 179.046L102.328 175.873C95.4594 170.721 85.5291 162.172 85.2677 161.201C85.1931 160.902 89.2996 159.334 90.5689 159.185C90.7555 159.148 92.3235 160.454 94.1154 162.06ZM80.5639 165.158C83.3265 167.958 90.0089 173.857 94.1154 177.179L97.2513 179.68L94.3021 179.643C88.7396 179.606 87.8063 179.344 85.0064 176.843C80.7506 173.147 71.7909 164.71 71.7909 164.412C71.7909 164.188 76.3827 163.03 77.764 162.918C78.1 162.881 79.3319 163.889 80.5639 165.158ZM70.2976 171.281C73.4708 174.454 75.8601 177.067 75.5614 177.067C75.3001 177.067 72.6868 176.283 69.8496 175.313C64.5485 173.558 53.4608 168.331 53.1995 167.435C53.1249 167.137 53.5355 166.987 54.5061 166.95C55.6261 166.913 63.4285 165.793 64.3245 165.532C64.4365 165.532 67.1244 168.107 70.2976 171.281Z" fill="#3279DE"/>
</svg>
