<svg width="201" height="49" viewBox="0 0 201 49" fill="none" xmlns="http://www.w3.org/2000/svg">
<circle cx="24.3902" cy="24.3902" r="24.3902" fill="#F0B55C"/>
<path d="M22.7519 1.89632C17.7214 2.42032 13.6532 4.09715 9.90888 7.19357C6.31703 10.1661 3.63982 14.4058 2.45842 19.0267C1.92488 21.1132 1.80103 22.1898 1.80103 24.6097C1.80103 27.0297 1.92488 28.1158 2.45842 30.1928C3.48738 34.2134 5.44051 37.6433 8.41307 40.6254C14.625 46.8563 23.7904 48.9904 32.0602 46.1227L32.6223 45.9321L33.4035 46.3228C34.6135 46.923 35.5758 47.1326 36.8525 47.0659C37.9862 47.0087 38.596 46.8468 39.9584 46.1989C41.2732 45.5892 42.0068 45.4272 43.5693 45.4367C44.6745 45.4367 45.0937 45.4843 45.6654 45.6463C46.4752 45.875 46.742 45.8178 46.9897 45.3605C47.5042 44.4459 45.7225 43.7694 43.0929 43.8837C41.6543 43.9504 40.5777 44.2172 39.2153 44.8555C38.7008 45.1033 38.0434 45.3605 37.7576 45.4367C36.8906 45.6654 35.5758 45.5892 34.7755 45.2747C34.5183 45.1699 34.5373 45.1509 35.5282 44.5983C39.806 42.226 43.0358 38.8533 45.1413 34.5754C46.2084 32.3936 46.8563 30.3262 47.2469 27.83C47.4851 26.3151 47.4851 22.8948 47.2469 21.3704C46.1894 14.5964 42.3593 8.80371 36.5667 5.22139C34.0228 3.63984 31.0312 2.55371 27.9443 2.07734C26.982 1.9249 23.5808 1.81057 22.7519 1.89632ZM26.6676 3.46834C31.0217 3.88755 35.0423 5.60249 38.5674 8.53694L38.8532 8.77513L38.6436 9.21339C38.5198 9.45157 38.3864 9.65165 38.3388 9.65165C38.2911 9.65165 37.4813 9.27055 36.5476 8.80371C31.9744 6.51712 26.6772 4.9451 21.1131 4.22101C20.2843 4.10668 19.5697 4.01141 19.5125 3.99235C19.3696 3.95424 21.0465 3.63984 22.1326 3.50645C23.3997 3.35401 25.3243 3.33496 26.6676 3.46834ZM17.5213 4.76407C17.4927 4.85935 17.407 5.33572 17.3308 5.83115C16.5495 10.6901 17.8643 17.1116 20.8083 22.79C21.1131 23.3902 21.3418 23.9047 21.3227 23.9428C21.2942 23.9809 21.0179 24.1143 20.6939 24.2286C19.9794 24.5049 20.0747 24.6002 19.1791 22.7519C16.2827 16.7591 15.1109 10.5853 15.9112 5.5358C15.9588 5.19281 15.9969 5.16423 16.6924 4.89746C17.5499 4.55447 17.588 4.55447 17.5213 4.76407ZM21.0941 5.75493C24.6383 6.22177 28.2587 7.10782 31.4981 8.28923C33.1463 8.88946 35.633 9.98511 36.7763 10.6139L37.5575 11.0427L37.1764 11.6238L36.7953 12.205L35.5377 11.5667C31.117 9.31819 25.5148 7.66994 20.2747 7.07924C19.7507 7.02208 19.1886 6.95539 19.0266 6.9268L18.7408 6.88869L18.8075 6.38374C18.8456 6.11697 18.8837 5.81209 18.8837 5.71682C18.8933 5.49769 19.2458 5.50721 21.0941 5.75493ZM14.2153 6.84106C13.9199 9.97558 14.4439 14.1486 15.6158 17.9405C16.1112 19.5411 17.1021 21.9802 17.9024 23.5903C18.4074 24.5907 18.5693 25.0099 18.4836 25.048C18.4169 25.067 18.0929 25.1718 17.7785 25.2671L17.1974 25.4481L16.4828 23.9523C14.6154 20.0937 13.4436 16.2637 12.9386 12.367C12.7576 11.0331 12.6433 7.98435 12.7385 7.33648C12.8052 6.89822 12.8243 6.87917 13.5388 6.45996C13.9295 6.2313 14.2629 6.04075 14.2724 6.05981C14.282 6.06933 14.2534 6.42185 14.2153 6.84106ZM11.3666 11.9859C11.8239 16.1398 13.0529 20.3129 15.0346 24.4859C15.3776 25.2004 15.6349 25.8007 15.6158 25.8197C15.5586 25.8864 14.3106 26.1627 14.2724 26.1151C14.1676 26.0007 13.2911 24.1524 12.8529 23.0949C11.0903 18.9028 10.1185 14.8346 9.79455 10.2614L9.72785 9.39441L10.4329 8.7656L11.1284 8.13679L11.1951 9.58496C11.2332 10.3757 11.3094 11.4619 11.3666 11.9859ZM20.894 8.70843C25.7721 9.3563 30.7454 10.8521 34.8041 12.891C35.3281 13.1577 35.7568 13.4055 35.7568 13.4436C35.7568 13.4817 35.5472 13.7294 35.2995 14.0057L34.8517 14.5011L33.6703 13.9295C29.6783 11.9859 25.0956 10.6616 20.189 10.0327C19.4173 9.93747 18.7599 9.83267 18.7313 9.81362C18.7122 9.78503 18.6646 9.4611 18.636 9.08L18.5788 8.39403L18.9981 8.45119C19.2267 8.47978 20.0842 8.5941 20.894 8.70843ZM40.7016 11.5476C38.7675 14.968 34.766 19.1791 30.6692 22.104C27.7347 24.2001 23.7237 26.2961 20.37 27.4965C15.9683 29.0686 12.0144 29.7164 7.79378 29.5449C6.19317 29.4878 4.02092 29.1829 3.78273 28.9924C3.72557 28.9352 3.63982 28.6875 3.61124 28.4398C3.57313 28.192 3.52549 27.8776 3.49691 27.7443L3.44927 27.4965L4.19241 27.668C6.12648 28.1349 9.54683 28.3064 11.8429 28.0396C16.2351 27.5537 20.2843 26.2866 24.6574 24.0476C28.4779 22.0945 31.5552 19.9127 34.4039 17.1402C36.4809 15.1204 38.091 13.1196 39.3391 11.0141L39.9965 9.91842L40.5015 10.4615L40.9969 11.0141L40.7016 11.5476ZM8.56551 13.3007C9.05141 17.1021 10.3757 21.5133 12.1764 25.3338L12.6814 26.4104L12.1478 26.4676C11.8429 26.4962 11.5095 26.5438 11.3952 26.5724C11.2141 26.6105 11.1379 26.5152 10.833 25.8769C9.0133 21.9897 7.66993 17.3975 7.05064 12.9672C7.00301 12.6433 7.05064 12.5385 7.63182 11.7763L8.27016 10.9474L8.34638 11.5667C8.38449 11.9001 8.47976 12.6814 8.56551 13.3007ZM20.7702 11.6524C25.0861 12.2812 29.1543 13.4722 32.708 15.149L33.8037 15.6635L33.2511 16.197C32.9558 16.4828 32.6509 16.702 32.5842 16.6734C32.527 16.6448 31.9458 16.378 31.298 16.0922C28.1349 14.6536 23.9714 13.5007 20.2843 13.0244L19.0076 12.8624L18.9409 12.4241C18.9123 12.1859 18.8647 11.8715 18.8361 11.7191C18.7884 11.4809 18.8075 11.4619 19.1219 11.4619C19.3029 11.4619 20.0461 11.5476 20.7702 11.6524ZM42.5022 13.0434L42.9119 13.6627L42.1497 14.7774C39.4439 18.7694 35.5472 22.4851 30.9455 25.4863C25.1147 29.2877 18.5503 31.7267 12.3765 32.3746C9.73738 32.6509 4.9165 32.4794 4.67831 32.1078C4.56398 31.9268 4.19241 30.793 4.24005 30.7549C4.2591 30.7359 4.67831 30.7835 5.16421 30.8597C6.48853 31.0693 8.83228 31.1646 10.6234 31.0789C22.0278 30.5072 34.7755 23.2473 41.1208 13.7294C41.6067 13.0053 42.0163 12.4146 42.0449 12.4146C42.0735 12.4146 42.2736 12.7004 42.5022 13.0434ZM20.6558 14.6154C21.7705 14.7679 23.9809 15.2252 25.229 15.5587C27.5537 16.1779 31.5838 17.7023 31.3742 17.8738C31.3456 17.8929 31.0693 18.112 30.7644 18.3597C30.4596 18.6074 30.1547 18.7885 30.0975 18.7599C27.325 17.5594 24.3239 16.6734 21.2751 16.1589L19.7126 15.8921L19.5411 15.3681C19.4554 15.0823 19.3792 14.7488 19.3792 14.6345C19.3696 14.4535 19.4077 14.4249 19.6364 14.463C19.7793 14.4916 20.2366 14.5583 20.6558 14.6154ZM5.8883 15.3395C6.23128 17.8071 7.59371 22.2469 8.9466 25.3529C9.23243 26.0007 9.46109 26.5724 9.46109 26.6295C9.46109 26.801 8.01292 26.6486 7.87953 26.4676C7.68898 26.2008 6.45994 23.0282 5.98357 21.5609C5.49767 20.0556 4.78311 17.3689 4.77359 16.9878C4.76406 16.7115 5.64058 14.7774 5.74539 14.8441C5.78349 14.8727 5.85019 15.0918 5.8883 15.3395ZM44.1029 15.9969L44.4268 16.721L44.0743 17.2069C41.8449 20.3033 38.5102 23.6475 35.1375 26.1722C26.8391 32.3936 16.4161 35.9188 7.61276 35.4805C6.45994 35.4234 6.27892 35.3948 6.15507 35.2328C6.02168 35.0518 5.45956 33.9943 5.45956 33.918C5.45956 33.899 5.77397 33.9276 6.15507 33.9657C7.32694 34.1086 11.0045 34.0705 12.5384 33.9085C19.684 33.1273 27.2679 30.1071 33.6608 25.4863C37.2907 22.8662 40.8826 19.2934 43.1311 16.0541C43.4359 15.6254 43.7027 15.2728 43.7218 15.2728C43.7503 15.2728 43.9218 15.5968 44.1029 15.9969ZM22.2755 17.8929C23.1711 18.0739 24.4859 18.3978 25.2004 18.5979C26.6105 19.0171 28.7065 19.7603 28.7065 19.8555C28.7065 19.8841 28.4016 20.1128 28.0396 20.3605L27.3727 20.7988L26.1055 20.3795C24.8193 19.9508 23.1234 19.5126 21.6181 19.2077L20.7702 19.0362L20.4939 18.293L20.2271 17.5594H20.4367C20.551 17.5594 21.3799 17.7119 22.2755 17.8929ZM45.2843 19.3696L45.4939 20.2271L45.1318 20.6844C40.1776 26.8392 32.7176 32.1936 24.705 35.3281C19.6364 37.3098 13.7675 38.5103 9.604 38.4055L8.37496 38.3769L7.87 37.7576C7.59371 37.4146 7.36505 37.1097 7.36505 37.0811C7.36505 37.043 8.23205 37.0145 9.29912 37.0145C21.8372 36.9573 35.8521 29.9546 44.16 19.5792C44.6364 18.9981 45.0365 18.5122 45.0461 18.5122C45.0651 18.5122 45.1699 18.9028 45.2843 19.3696ZM4.2591 21.1703C4.58304 22.2565 5.63106 25.1528 6.06932 26.1627C6.22176 26.5152 6.22176 26.5152 6.01215 26.4771C5.8883 26.4485 5.53578 26.3818 5.22138 26.3247C4.90697 26.2675 4.33532 26.1246 3.96375 26.0198L3.26825 25.8197V24.6669C3.26825 24.0286 3.31589 23.1044 3.36353 22.609C3.48738 21.4847 3.75415 19.9413 3.8399 19.9413C3.86848 19.9413 4.05903 20.4939 4.2591 21.1703ZM23.3807 21.1703C25.3052 21.6658 25.6196 21.7801 25.4481 21.9135C25.1337 22.1707 22.8852 23.2854 22.7995 23.2283C22.7042 23.1711 21.5609 20.9702 21.5609 20.8464C21.5609 20.7416 21.9611 20.8178 23.3807 21.1703ZM45.9035 23.2759L45.9702 24.2286L45.0365 25.2481C42.8833 27.5632 39.7583 30.2214 36.6619 32.346C33.8894 34.2515 29.4878 36.6048 26.3723 37.8433C21.6657 39.7202 16.7782 40.9017 12.3003 41.2446L11.4618 41.3113L10.9664 40.9207C10.6901 40.7111 10.3376 40.4062 10.1852 40.2443L9.89935 39.9489H10.471C11.3094 39.9489 13.1387 39.7774 14.6535 39.5583C25.0766 38.072 35.5663 32.7366 43.2263 25.0289C44.0171 24.2382 44.9032 23.3045 45.189 22.9615C45.4748 22.6185 45.7416 22.3327 45.7702 22.3327C45.8083 22.3231 45.8654 22.7519 45.9035 23.2759ZM45.8178 27.0106C45.6177 28.354 45.4367 29.2686 45.3795 29.2305C45.3414 29.202 45.2557 28.7732 45.189 28.2778L45.0651 27.3632L45.4367 26.9821C45.6368 26.782 45.8178 26.6105 45.8368 26.6105C45.8559 26.6105 45.8464 26.7915 45.8178 27.0106ZM43.8933 29.9165C43.979 30.593 44.0838 31.5648 44.1314 32.0888L44.2077 33.0415L43.5979 34.2515C43.2549 34.9279 42.95 35.471 42.9119 35.471C42.8738 35.471 42.8071 34.7565 42.7785 33.8704C42.7404 32.9939 42.6547 31.7363 42.5689 31.0693L42.426 29.8498L42.8357 29.4783C43.1882 29.1543 43.6932 28.7161 43.7218 28.7065C43.7313 28.7065 43.8075 29.2496 43.8933 29.9165ZM41.1779 32.5651C41.2351 33.3083 41.2827 34.7946 41.2827 35.8807V37.8433L40.7111 38.5198C40.3872 38.8818 40.1013 39.1867 40.0632 39.1867C39.8346 39.1772 39.806 38.8723 39.806 36.2332C39.806 34.6898 39.7869 33.1082 39.7583 32.7271L39.7107 32.0316L40.3205 31.5552C40.6539 31.298 40.9683 31.117 41.0064 31.1551C41.0445 31.1932 41.1208 31.8315 41.1779 32.5651ZM38.3197 36.0141C38.3197 37.3384 38.3102 38.4245 38.2816 38.4245C38.253 38.4245 37.9386 38.2911 37.567 38.1292L36.9001 37.8243V35.9093L36.9096 33.9943L37.548 33.5465L38.1863 33.1082L38.2435 33.3559C38.2816 33.4988 38.3102 34.6993 38.3197 36.0141ZM35.3567 36.4238L35.3281 36.9097L34.6421 36.4523C34.2705 36.2046 33.9657 35.9474 33.9752 35.8997C33.9752 35.8426 34.2896 35.6234 34.6612 35.4138L35.3281 35.0137L35.3567 35.4805C35.3757 35.7378 35.3757 36.1665 35.3567 36.4238ZM35.7378 38.9009C36.3285 39.2248 37.2812 39.7012 37.8529 39.9489L38.9009 40.4062L38.3102 40.8921C37.9767 41.1589 37.6718 41.378 37.6147 41.378C37.4336 41.378 35.0423 40.168 34.0419 39.5773C33.051 38.9866 30.9931 37.567 30.9931 37.4718C30.9931 37.4432 31.298 37.2622 31.6791 37.0811L32.3651 36.7382L33.5083 37.5194C34.1467 37.9481 35.1471 38.5674 35.7378 38.9009ZM30.25 38.8437C31.4695 39.7774 33.4035 41.016 34.8422 41.7591C35.5567 42.1402 36.1379 42.4546 36.1379 42.4737C36.1379 42.5308 34.7945 43.2835 34.6993 43.2835C34.5373 43.2835 32.2221 41.9497 31.1932 41.2637C30.2595 40.6444 29.1829 39.8536 28.2968 39.1486L27.9253 38.8533L28.5827 38.5579C28.9352 38.3864 29.2877 38.2435 29.3449 38.2435C29.4115 38.234 29.8212 38.5103 30.25 38.8437ZM27.1154 40.1204C28.6779 41.4257 30.5072 42.7119 32.1554 43.6646C32.5651 43.9028 32.8986 44.1124 32.8986 44.141C32.8986 44.1696 32.527 44.3315 32.0792 44.503L31.2599 44.8174L30.9169 44.5983C30.1928 44.1696 28.535 43.0453 27.8014 42.4927C26.6581 41.6257 24.8765 40.1204 24.9432 40.0632C24.9813 40.0251 26.0484 39.5678 26.3056 39.4821C26.3247 39.4725 26.6867 39.7679 27.1154 40.1204ZM24.019 41.359C25.3814 42.5785 27.5823 44.2648 28.9447 45.1414L29.2305 45.3224L28.9447 45.3986C28.7827 45.4367 28.3254 45.5225 27.9253 45.5796L27.1917 45.694L26.1151 44.8841C24.362 43.5693 21.8277 41.3876 21.761 41.1398C21.742 41.0636 22.79 40.6635 23.1139 40.6254C23.1615 40.6158 23.5617 40.9493 24.019 41.359ZM20.5606 42.1497C21.2656 42.8643 22.971 44.3696 24.019 45.2176L24.8193 45.8559L24.0667 45.8464C22.6471 45.8369 22.4089 45.7702 21.6943 45.1318C20.6082 44.1886 18.3216 42.0354 18.3216 41.9592C18.3216 41.902 19.4935 41.6067 19.846 41.5781C19.9317 41.5686 20.2461 41.8258 20.5606 42.1497ZM17.9405 43.7122C18.7503 44.5221 19.3601 45.189 19.2839 45.189C19.2172 45.189 18.5503 44.9889 17.8262 44.7412C16.4733 44.2934 13.6436 42.9596 13.5769 42.7309C13.5579 42.6547 13.6627 42.6166 13.9104 42.6071C14.1962 42.5975 16.1875 42.3117 16.4161 42.245C16.4447 42.245 17.1307 42.9024 17.9405 43.7122Z" fill="#3279DE"/>
<path d="M18.0453 19.7812L18.7484 19.5938C18.7484 19.9271 18.7536 20.1146 18.7641 20.1562C19.3578 19.7604 20.1911 19.5625 21.2641 19.5625C22.4203 19.5625 23.2849 19.9271 23.8578 20.6562C24.4307 21.375 24.7172 22.3854 24.7172 23.6875C24.7172 24.8438 24.4359 25.8021 23.8734 26.5625C23.3109 27.3229 22.462 27.7031 21.3266 27.7031C21.1391 27.7031 20.3891 27.6406 19.0766 27.5156C19.0974 28.276 19.1391 29.4583 19.2016 31.0625C19.1078 31.3854 18.9255 31.5469 18.6547 31.5469C18.4672 31.5469 18.2849 31.4688 18.1078 31.3125C17.9411 31.1667 17.837 30.9844 17.7953 30.7656C17.8266 29.8906 17.8578 28.1875 17.8891 25.6562C17.9307 23.125 17.9828 21.1667 18.0453 19.7812ZM18.9047 21.2031L19.0297 26.0781C19.6026 26.3906 20.2641 26.5469 21.0141 26.5469C21.7328 26.5469 22.3422 26.276 22.8422 25.7344C23.3422 25.1927 23.5922 24.5312 23.5922 23.75C23.5922 22.9062 23.3318 22.1458 22.8109 21.4688C22.2901 20.7917 21.6391 20.4531 20.8578 20.4531C20.2224 20.4531 19.5714 20.7031 18.9047 21.2031ZM27.6141 25.7656C27.6141 25.4115 27.6141 25.1458 27.6141 24.9688C27.6141 24.7812 27.6193 24.5 27.6297 24.125C27.6505 23.75 27.6714 23.4531 27.6922 23.2344C27.7234 23.0156 27.7651 22.7344 27.8172 22.3906C27.8693 22.0365 27.937 21.7552 28.0203 21.5469C28.1036 21.3281 28.1974 21.0833 28.3016 20.8125C28.4161 20.5417 28.5568 20.3229 28.7234 20.1562C28.8901 19.9896 29.0724 19.8333 29.2703 19.6875C29.4682 19.5312 29.7026 19.4167 29.9734 19.3438C30.2443 19.2708 30.5411 19.2344 30.8641 19.2344C31.5099 19.2344 32.0724 19.3646 32.5516 19.625C33.0307 19.875 33.4057 20.1927 33.6766 20.5781C33.9474 20.9635 34.1609 21.4375 34.3172 22C34.4839 22.5625 34.588 23.099 34.6297 23.6094C34.6818 24.1198 34.7078 24.6823 34.7078 25.2969C34.7078 25.7135 34.6974 26.0885 34.6766 26.4219C34.6661 26.7552 34.6349 27.1354 34.5828 27.5625C34.5411 27.9792 34.4734 28.349 34.3797 28.6719C34.2964 28.9948 34.1766 29.3229 34.0203 29.6562C33.8641 29.9792 33.6766 30.25 33.4578 30.4688C33.2495 30.6771 32.9839 30.849 32.6609 30.9844C32.338 31.1198 31.9786 31.1875 31.5828 31.1875C30.937 31.1875 30.3797 31.1094 29.9109 30.9531C29.4526 30.7969 29.0724 30.5781 28.7703 30.2969C28.4786 30.0156 28.2443 29.6458 28.0672 29.1875C27.9005 28.7292 27.7807 28.2292 27.7078 27.6875C27.6453 27.1458 27.6141 26.5052 27.6141 25.7656ZM33.5828 25.8906C33.5828 25.3802 33.5411 24.849 33.4578 24.2969C33.3849 23.7448 33.2547 23.151 33.0672 22.5156C32.8901 21.8802 32.6036 21.3646 32.2078 20.9688C31.812 20.5625 31.338 20.3594 30.7859 20.3594C30.3693 20.3594 29.9995 20.6406 29.6766 21.2031C29.3641 21.7552 29.1401 22.3802 29.0047 23.0781C28.8693 23.7656 28.8016 24.4167 28.8016 25.0312C28.8016 25.4583 28.8016 25.7865 28.8016 26.0156C28.812 26.2344 28.8328 26.5521 28.8641 26.9688C28.8953 27.375 28.937 27.6979 28.9891 27.9375C29.0516 28.1771 29.1453 28.4531 29.2703 28.7656C29.3953 29.0781 29.5411 29.3229 29.7078 29.5C29.8849 29.6667 30.1089 29.8177 30.3797 29.9531C30.6609 30.0781 30.9734 30.1458 31.3172 30.1562C32.0776 30.1146 32.6453 29.6875 33.0203 28.875C33.3953 28.0625 33.5828 27.0677 33.5828 25.8906ZM44.7297 20.6875L44.1047 21.4062C43.2922 20.8021 42.4901 20.5 41.6984 20.5C41.1776 20.5 40.7297 20.625 40.3547 20.875C39.9797 21.125 39.6932 21.4271 39.4953 21.7812C39.3078 22.1354 39.1568 22.5833 39.0422 23.125C38.938 23.6667 38.8703 24.1354 38.8391 24.5312C38.8182 24.9271 38.8078 25.3906 38.8078 25.9219C38.8078 26.4427 38.9016 27.0365 39.0891 27.7031C39.287 28.3594 39.6151 28.974 40.0734 29.5469C40.5318 30.1198 41.063 30.4062 41.6672 30.4062C42.3234 30.4062 43.3286 30.0625 44.6828 29.375C44.8182 29.5729 44.9953 29.901 45.2141 30.3594C43.9016 31.2656 42.7297 31.7188 41.6984 31.7188C41.0318 31.7188 40.4224 31.5156 39.8703 31.1094C39.3182 30.7031 38.8807 30.1875 38.5578 29.5625C38.2453 28.9375 38.0005 28.2865 37.8234 27.6094C37.6568 26.9219 37.5734 26.2708 37.5734 25.6562C37.5734 24.9792 37.6255 24.3229 37.7297 23.6875C37.8339 23.0417 38.0109 22.3958 38.2609 21.75C38.5109 21.1042 38.8859 20.5833 39.3859 20.1875C39.8964 19.7917 40.5005 19.5938 41.1984 19.5938C41.8026 19.5938 42.4276 19.6979 43.0734 19.9062C43.7193 20.1146 44.2714 20.375 44.7297 20.6875ZM47.1266 20.5156L46.9703 19.8125L52.9391 19.4688C53.1995 19.4792 53.4182 19.5729 53.5953 19.75C53.7724 19.9271 53.8609 20.1198 53.8609 20.3281C53.8609 20.4635 53.8089 20.5833 53.7047 20.6875C53.6005 20.7917 53.4443 20.8542 53.2359 20.875L50.6109 20.7344C50.8714 24.4115 51.0641 27.7552 51.1891 30.7656C51.0953 31.0781 50.9182 31.2344 50.6578 31.2344C50.4703 31.2344 50.288 31.1562 50.1109 31C49.9339 30.8542 49.8245 30.6719 49.7828 30.4531C49.8036 29.8906 49.8141 29.0365 49.8141 27.8906C49.8141 27.4635 49.8089 26.8229 49.7984 25.9688C49.7984 25.1146 49.7984 24.474 49.7984 24.0469C49.7984 22.8073 49.8193 21.6875 49.8609 20.6875C48.6839 20.6042 47.7724 20.5469 47.1266 20.5156ZM55.5547 25.7656C55.5547 25.4115 55.5547 25.1458 55.5547 24.9688C55.5547 24.7812 55.5599 24.5 55.5703 24.125C55.5911 23.75 55.612 23.4531 55.6328 23.2344C55.6641 23.0156 55.7057 22.7344 55.7578 22.3906C55.8099 22.0365 55.8776 21.7552 55.9609 21.5469C56.0443 21.3281 56.138 21.0833 56.2422 20.8125C56.3568 20.5417 56.4974 20.3229 56.6641 20.1562C56.8307 19.9896 57.013 19.8333 57.2109 19.6875C57.4089 19.5312 57.6432 19.4167 57.9141 19.3438C58.1849 19.2708 58.4818 19.2344 58.8047 19.2344C59.4505 19.2344 60.013 19.3646 60.4922 19.625C60.9714 19.875 61.3464 20.1927 61.6172 20.5781C61.888 20.9635 62.1016 21.4375 62.2578 22C62.4245 22.5625 62.5286 23.099 62.5703 23.6094C62.6224 24.1198 62.6484 24.6823 62.6484 25.2969C62.6484 25.7135 62.638 26.0885 62.6172 26.4219C62.6068 26.7552 62.5755 27.1354 62.5234 27.5625C62.4818 27.9792 62.4141 28.349 62.3203 28.6719C62.237 28.9948 62.1172 29.3229 61.9609 29.6562C61.8047 29.9792 61.6172 30.25 61.3984 30.4688C61.1901 30.6771 60.9245 30.849 60.6016 30.9844C60.2786 31.1198 59.9193 31.1875 59.5234 31.1875C58.8776 31.1875 58.3203 31.1094 57.8516 30.9531C57.3932 30.7969 57.013 30.5781 56.7109 30.2969C56.4193 30.0156 56.1849 29.6458 56.0078 29.1875C55.8411 28.7292 55.7214 28.2292 55.6484 27.6875C55.5859 27.1458 55.5547 26.5052 55.5547 25.7656ZM61.5234 25.8906C61.5234 25.3802 61.4818 24.849 61.3984 24.2969C61.3255 23.7448 61.1953 23.151 61.0078 22.5156C60.8307 21.8802 60.5443 21.3646 60.1484 20.9688C59.7526 20.5625 59.2786 20.3594 58.7266 20.3594C58.3099 20.3594 57.9401 20.6406 57.6172 21.2031C57.3047 21.7552 57.0807 22.3802 56.9453 23.0781C56.8099 23.7656 56.7422 24.4167 56.7422 25.0312C56.7422 25.4583 56.7422 25.7865 56.7422 26.0156C56.7526 26.2344 56.7734 26.5521 56.8047 26.9688C56.8359 27.375 56.8776 27.6979 56.9297 27.9375C56.9922 28.1771 57.0859 28.4531 57.2109 28.7656C57.3359 29.0781 57.4818 29.3229 57.6484 29.5C57.8255 29.6667 58.0495 29.8177 58.3203 29.9531C58.6016 30.0781 58.9141 30.1458 59.2578 30.1562C60.0182 30.1146 60.5859 29.6875 60.9609 28.875C61.3359 28.0625 61.5234 27.0677 61.5234 25.8906ZM65.5141 30.5938L65.5922 19.5938C65.7068 19.2083 66.1547 19.0156 66.9359 19.0156C67.6547 19.0156 68.3161 19.1146 68.9203 19.3125C69.5245 19.5 70.0297 19.8229 70.4359 20.2812C70.8526 20.7292 71.0609 21.2708 71.0609 21.9062C71.0609 22.4062 70.9359 22.8906 70.6859 23.3594C70.4464 23.8281 70.1495 24.1302 69.7953 24.2656C70.462 24.3594 70.9984 24.7604 71.4047 25.4688C71.8109 26.1771 72.0141 27.0156 72.0141 27.9844C72.0141 28.6406 71.7536 29.2135 71.2328 29.7031C70.712 30.1823 70.1026 30.5312 69.4047 30.75C68.7172 30.9583 68.0193 31.0625 67.3109 31.0625C66.4464 31.0625 65.8474 30.9062 65.5141 30.5938ZM66.7953 25.125C66.7953 25.8438 66.7849 27.2865 66.7641 29.4531C67.0766 29.8073 67.4776 29.9844 67.9672 29.9844C68.613 29.9844 69.238 29.7188 69.8422 29.1875C70.4464 28.6458 70.7484 28.0677 70.7484 27.4531C70.7484 26.6927 70.4932 26.099 69.9828 25.6719C69.4724 25.2448 68.8161 25.0312 68.0141 25.0312C67.4828 25.0312 67.0766 25.0625 66.7953 25.125ZM66.7641 23.9688L67.7328 23.9531C68.3995 23.9531 68.9099 23.7604 69.2641 23.375C69.6286 22.9792 69.8109 22.5104 69.8109 21.9688C69.8109 21.4167 69.6286 20.9427 69.2641 20.5469C68.8995 20.1406 68.3943 19.9375 67.7484 19.9375C67.4568 19.9375 67.113 20 66.7172 20.125C66.738 20.7604 66.7484 21.5469 66.7484 22.4844C66.7589 23.4219 66.7641 23.9167 66.7641 23.9688ZM75.0984 19.5156L75.8016 19.6719C75.812 19.8698 75.8797 21.4271 76.0047 24.3438C76.2859 24.3021 76.5984 24.2812 76.9422 24.2812C78.3172 24.2812 79.4422 24.6719 80.3172 25.4531C81.1922 26.224 81.6297 27.1302 81.6297 28.1719C81.6297 30.2865 80.3224 31.3438 77.7078 31.3438C77.0307 31.3438 76.4109 31.2917 75.8484 31.1875C75.2859 31.0833 74.963 30.9531 74.8797 30.7969C74.9109 29.9219 74.937 28.151 74.9578 25.4844C74.9786 22.8073 75.0255 20.8177 75.0984 19.5156ZM76.0828 25.5156C76.1557 27.7344 76.2078 29.2135 76.2391 29.9531C76.9578 30.0469 77.588 30.0938 78.1297 30.0938C79.588 30.0938 80.3172 29.401 80.3172 28.0156C80.3172 27.2969 80.0047 26.6927 79.3797 26.2031C78.7651 25.7031 77.9526 25.4531 76.9422 25.4531C76.6297 25.4531 76.3432 25.474 76.0828 25.5156ZM83.4422 19.625L84.1453 19.7812C84.1766 20.2708 84.3068 23.9583 84.5359 30.8438C84.4422 31.1562 84.2651 31.3125 84.0047 31.3125C83.8172 31.3125 83.6349 31.2344 83.4578 31.0781C83.2807 30.9323 83.1714 30.75 83.1297 30.5312C83.1505 29.7812 83.187 28.125 83.2391 25.5625C83.3016 23 83.3693 21.0208 83.4422 19.625ZM93.3703 30.2969L93.5266 31C93.1203 31 92.3807 31.0156 91.3078 31.0469C90.2453 31.0885 89.4745 31.1094 88.9953 31.1094C88.2245 31.1094 87.6984 31.0729 87.4172 31C87.5213 29.8542 87.5838 27.9375 87.6047 25.25C87.6255 22.5625 87.6932 20.6875 87.8078 19.625C88.162 19.6562 89.0995 19.6823 90.6203 19.7031C92.1516 19.724 93.1516 19.7708 93.6203 19.8438L93.7922 20.5469C93.3234 20.6302 92.3859 20.7292 90.9797 20.8438C89.5734 20.9583 88.8338 21.0208 88.7609 21.0312C88.7713 21.2708 88.7922 21.7604 88.8234 22.5C88.8651 23.2396 88.8911 23.849 88.9016 24.3281C89.2557 24.3698 89.9016 24.4323 90.8391 24.5156C91.7766 24.5885 92.3703 24.6354 92.6203 24.6562L92.7766 25.375C90.5786 25.5729 89.2922 25.6771 88.9172 25.6875C88.9172 26.1458 88.9068 26.8438 88.8859 27.7812C88.8755 28.7083 88.8703 29.3906 88.8703 29.8281C91.2557 30.0469 92.7557 30.2031 93.3703 30.2969ZM109.57 30.6562L109.617 31.25C109.065 31.4167 108.539 31.5 108.039 31.5C107.56 31.5 107.148 31.3698 106.805 31.1094C106.471 30.8594 106.216 30.5417 106.039 30.1562C105.872 29.7708 105.701 29.3542 105.523 28.9062C105.357 28.4583 105.195 28.0417 105.039 27.6562C104.893 27.2708 104.674 26.9531 104.383 26.7031C104.091 26.4427 103.742 26.3125 103.336 26.3125L103.492 30.9062C103.398 31.2292 103.216 31.3906 102.945 31.3906C102.758 31.3906 102.576 31.3125 102.398 31.1562C102.232 31 102.128 30.8125 102.086 30.5938C102.096 30.375 102.133 28.6146 102.195 25.3125C102.258 22 102.305 20.0833 102.336 19.5625L103.039 19.7188C103.049 20.1146 103.081 20.8594 103.133 21.9531C103.185 23.0365 103.216 23.7708 103.227 24.1562C103.674 24.1458 104.055 23.9792 104.367 23.6562C104.69 23.3229 104.951 22.9219 105.148 22.4531C105.357 21.9844 105.565 21.5208 105.773 21.0625C105.982 20.5938 106.253 20.1979 106.586 19.875C106.93 19.5417 107.336 19.375 107.805 19.375C108.159 19.375 108.758 19.4531 109.602 19.6094L109.445 20.2344C108.799 20.1302 108.43 20.0781 108.336 20.0781C107.971 20.0781 107.664 20.2292 107.414 20.5312C107.164 20.8333 106.956 21.2135 106.789 21.6719C106.622 22.1198 106.44 22.5833 106.242 23.0625C106.044 23.5312 105.753 23.9635 105.367 24.3594C104.982 24.7552 104.508 25.0208 103.945 25.1562C104.445 25.2708 104.878 25.4948 105.242 25.8281C105.607 26.1615 105.878 26.5365 106.055 26.9531C106.232 27.3698 106.404 27.8125 106.57 28.2812C106.737 28.7396 106.883 29.1562 107.008 29.5312C107.133 29.9062 107.305 30.2188 107.523 30.4688C107.753 30.7188 108.029 30.8438 108.352 30.8438C108.664 30.8438 109.07 30.7812 109.57 30.6562ZM111.092 25.7656C111.092 25.4115 111.092 25.1458 111.092 24.9688C111.092 24.7812 111.097 24.5 111.108 24.125C111.129 23.75 111.149 23.4531 111.17 23.2344C111.202 23.0156 111.243 22.7344 111.295 22.3906C111.347 22.0365 111.415 21.7552 111.498 21.5469C111.582 21.3281 111.676 21.0833 111.78 20.8125C111.894 20.5417 112.035 20.3229 112.202 20.1562C112.368 19.9896 112.551 19.8333 112.748 19.6875C112.946 19.5312 113.181 19.4167 113.452 19.3438C113.722 19.2708 114.019 19.2344 114.342 19.2344C114.988 19.2344 115.551 19.3646 116.03 19.625C116.509 19.875 116.884 20.1927 117.155 20.5781C117.426 20.9635 117.639 21.4375 117.795 22C117.962 22.5625 118.066 23.099 118.108 23.6094C118.16 24.1198 118.186 24.6823 118.186 25.2969C118.186 25.7135 118.176 26.0885 118.155 26.4219C118.144 26.7552 118.113 27.1354 118.061 27.5625C118.019 27.9792 117.952 28.349 117.858 28.6719C117.774 28.9948 117.655 29.3229 117.498 29.6562C117.342 29.9792 117.155 30.25 116.936 30.4688C116.728 30.6771 116.462 30.849 116.139 30.9844C115.816 31.1198 115.457 31.1875 115.061 31.1875C114.415 31.1875 113.858 31.1094 113.389 30.9531C112.931 30.7969 112.551 30.5781 112.248 30.2969C111.957 30.0156 111.722 29.6458 111.545 29.1875C111.379 28.7292 111.259 28.2292 111.186 27.6875C111.123 27.1458 111.092 26.5052 111.092 25.7656ZM117.061 25.8906C117.061 25.3802 117.019 24.849 116.936 24.2969C116.863 23.7448 116.733 23.151 116.545 22.5156C116.368 21.8802 116.082 21.3646 115.686 20.9688C115.29 20.5625 114.816 20.3594 114.264 20.3594C113.847 20.3594 113.478 20.6406 113.155 21.2031C112.842 21.7552 112.618 22.3802 112.483 23.0781C112.347 23.7656 112.28 24.4167 112.28 25.0312C112.28 25.4583 112.28 25.7865 112.28 26.0156C112.29 26.2344 112.311 26.5521 112.342 26.9688C112.373 27.375 112.415 27.6979 112.467 27.9375C112.53 28.1771 112.623 28.4531 112.748 28.7656C112.873 29.0781 113.019 29.3229 113.186 29.5C113.363 29.6667 113.587 29.8177 113.858 29.9531C114.139 30.0781 114.452 30.1458 114.795 30.1562C115.556 30.1146 116.123 29.6875 116.498 28.875C116.873 28.0625 117.061 27.0677 117.061 25.8906ZM128.208 20.6875L127.583 21.4062C126.77 20.8021 125.968 20.5 125.177 20.5C124.656 20.5 124.208 20.625 123.833 20.875C123.458 21.125 123.171 21.4271 122.973 21.7812C122.786 22.1354 122.635 22.5833 122.52 23.125C122.416 23.6667 122.348 24.1354 122.317 24.5312C122.296 24.9271 122.286 25.3906 122.286 25.9219C122.286 26.4427 122.38 27.0365 122.567 27.7031C122.765 28.3594 123.093 28.974 123.552 29.5469C124.01 30.1198 124.541 30.4062 125.145 30.4062C125.802 30.4062 126.807 30.0625 128.161 29.375C128.296 29.5729 128.473 29.901 128.692 30.3594C127.38 31.2656 126.208 31.7188 125.177 31.7188C124.51 31.7188 123.901 31.5156 123.348 31.1094C122.796 30.7031 122.359 30.1875 122.036 29.5625C121.723 28.9375 121.479 28.2865 121.302 27.6094C121.135 26.9219 121.052 26.2708 121.052 25.6562C121.052 24.9792 121.104 24.3229 121.208 23.6875C121.312 23.0417 121.489 22.3958 121.739 21.75C121.989 21.1042 122.364 20.5833 122.864 20.1875C123.374 19.7917 123.979 19.5938 124.677 19.5938C125.281 19.5938 125.906 19.6979 126.552 19.9062C127.197 20.1146 127.749 20.375 128.208 20.6875ZM130.605 20.5156L130.448 19.8125L136.417 19.4688C136.678 19.4792 136.896 19.5729 137.073 19.75C137.251 19.9271 137.339 20.1198 137.339 20.3281C137.339 20.4635 137.287 20.5833 137.183 20.6875C137.079 20.7917 136.922 20.8542 136.714 20.875L134.089 20.7344C134.349 24.4115 134.542 27.7552 134.667 30.7656C134.573 31.0781 134.396 31.2344 134.136 31.2344C133.948 31.2344 133.766 31.1562 133.589 31C133.412 30.8542 133.303 30.6719 133.261 30.4531C133.282 29.8906 133.292 29.0365 133.292 27.8906C133.292 27.4635 133.287 26.8229 133.277 25.9688C133.277 25.1146 133.277 24.474 133.277 24.0469C133.277 22.8073 133.297 21.6875 133.339 20.6875C132.162 20.6042 131.251 20.5469 130.605 20.5156ZM139.783 19.5781L140.486 19.7344C140.632 22.0781 140.731 23.9635 140.783 25.3906L142.58 25.0938C142.632 23.5417 142.752 22.4271 142.939 21.75C143.377 20.2083 144.298 19.4375 145.705 19.4375C146.288 19.4375 146.809 19.5833 147.267 19.875C147.726 20.1562 148.09 20.5156 148.361 20.9531C148.642 21.3906 148.871 21.901 149.048 22.4844C149.236 23.0677 149.361 23.6302 149.423 24.1719C149.496 24.7135 149.533 25.2552 149.533 25.7969C149.533 26.3906 149.502 26.9323 149.439 27.4219C149.387 27.9115 149.272 28.401 149.095 28.8906C148.918 29.3802 148.684 29.7917 148.392 30.125C148.111 30.4583 147.72 30.7292 147.22 30.9375C146.731 31.1458 146.158 31.25 145.502 31.25C143.418 31.25 142.377 30.0104 142.377 27.5312C142.377 27.1562 142.392 26.7812 142.423 26.4062L140.814 26.1719L140.986 30.6562C140.892 30.9792 140.71 31.1406 140.439 31.1406C140.252 31.1406 140.069 31.0677 139.892 30.9219C139.726 30.7656 139.621 30.5781 139.58 30.3594C139.611 29.4844 139.632 27.7917 139.642 25.2812C139.663 22.7604 139.71 20.8594 139.783 19.5781ZM143.533 26.2188C143.564 26.9062 143.632 27.5312 143.736 28.0938C143.84 28.6458 144.017 29.1406 144.267 29.5781C144.517 30.0156 144.824 30.2344 145.189 30.2344C145.783 30.2344 146.293 30.1094 146.72 29.8594C147.158 29.6094 147.486 29.2656 147.705 28.8281C147.934 28.3906 148.095 27.9271 148.189 27.4375C148.293 26.9375 148.345 26.3906 148.345 25.7969C148.345 25.2552 148.304 24.7135 148.22 24.1719C148.147 23.6198 148.022 23.0521 147.845 22.4688C147.679 21.875 147.413 21.3958 147.048 21.0312C146.694 20.6667 146.272 20.4844 145.783 20.4844C145.397 20.4844 145.054 20.6823 144.752 21.0781C144.449 21.474 144.215 21.9792 144.048 22.5938C143.882 23.2083 143.757 23.8281 143.673 24.4531C143.59 25.0677 143.543 25.6562 143.533 26.2188ZM163.258 31L162.07 31.1094C161.497 27.5156 160.878 24.4375 160.211 21.875C159.867 22.6875 159.487 23.8333 159.07 25.3125C158.664 26.7812 158.383 27.7344 158.227 28.1719C158.206 28.1719 158.169 28.1771 158.117 28.1875C158.076 28.1875 158.039 28.1875 158.008 28.1875C157.862 28.1875 157.622 28.1719 157.289 28.1406C156.956 28.1094 156.742 28.0938 156.648 28.0938C156.638 27.7917 156.372 26.7865 155.852 25.0781C155.331 23.3594 155.018 22.2604 154.914 21.7812C154.727 23.4688 153.997 26.5417 152.727 31L151.758 30.9062C151.904 29.7708 152.263 27.9844 152.836 25.5469C153.409 23.1094 153.747 21.224 153.852 19.8906C154.039 19.8698 154.19 19.8594 154.305 19.8594C154.409 19.8594 154.794 19.901 155.461 19.9844C155.607 20.0052 155.815 20.4792 156.086 21.4062C156.367 22.3229 156.648 23.3333 156.93 24.4375C157.211 25.5417 157.388 26.1927 157.461 26.3906C157.753 25.6719 158.102 24.5052 158.508 22.8906C158.924 21.276 159.216 20.25 159.383 19.8125C159.549 19.8229 160.076 19.8698 160.961 19.9531C161.232 21.0052 161.492 22.1406 161.742 23.3594C162.003 24.5781 162.279 25.9635 162.57 27.5156C162.872 29.0677 163.102 30.2292 163.258 31ZM165.717 19.5156L166.42 19.6719C166.431 19.8698 166.498 21.4271 166.623 24.3438C166.905 24.3021 167.217 24.2812 167.561 24.2812C168.936 24.2812 170.061 24.6719 170.936 25.4531C171.811 26.224 172.248 27.1302 172.248 28.1719C172.248 30.2865 170.941 31.3438 168.327 31.3438C167.649 31.3438 167.03 31.2917 166.467 31.1875C165.905 31.0833 165.582 30.9531 165.498 30.7969C165.53 29.9219 165.556 28.151 165.577 25.4844C165.597 22.8073 165.644 20.8177 165.717 19.5156ZM166.702 25.5156C166.774 27.7344 166.827 29.2135 166.858 29.9531C167.577 30.0469 168.207 30.0938 168.748 30.0938C170.207 30.0938 170.936 29.401 170.936 28.0156C170.936 27.2969 170.623 26.6927 169.998 26.2031C169.384 25.7031 168.571 25.4531 167.561 25.4531C167.248 25.4531 166.962 25.474 166.702 25.5156ZM174.061 19.625L174.764 19.7812C174.795 20.2708 174.926 23.9583 175.155 30.8438C175.061 31.1562 174.884 31.3125 174.623 31.3125C174.436 31.3125 174.254 31.2344 174.077 31.0781C173.899 30.9323 173.79 30.75 173.748 30.5312C173.769 29.7812 173.806 28.125 173.858 25.5625C173.92 23 173.988 21.0208 174.061 19.625ZM189.87 26.4531L190.027 27.1562C189.485 27.2188 189.099 27.2604 188.87 27.2812C188.891 27.7604 188.917 28.3646 188.948 29.0938C188.99 29.8229 189.016 30.4219 189.027 30.8906C188.933 31.2135 188.756 31.375 188.495 31.375C188.308 31.375 188.126 31.2969 187.948 31.1406C187.771 30.9844 187.662 30.7969 187.62 30.5781C187.631 30.2552 187.667 29.1927 187.73 27.3906C187.396 27.4115 187.131 27.4219 186.933 27.4219C186.62 27.4219 186.136 27.4062 185.48 27.375C184.834 27.3333 184.36 27.3125 184.058 27.3125C183.912 27.3125 183.714 27.3229 183.464 27.3438C183.485 27.0938 183.495 26.9219 183.495 26.8281C183.495 26.7656 183.49 26.6667 183.48 26.5312C183.48 26.3854 183.48 26.276 183.48 26.2031C185.219 23.276 186.626 21.1042 187.698 19.6875C188.021 19.6875 188.464 19.7552 189.027 19.8906C189.006 20.3802 188.974 21.4427 188.933 23.0781C188.902 24.7031 188.87 25.8021 188.839 26.375C189.297 26.3958 189.641 26.4219 189.87 26.4531ZM184.62 26.25L187.761 26.3438C187.792 25.75 187.823 24.8698 187.855 23.7031C187.886 22.5365 187.912 21.6562 187.933 21.0625C187.506 21.5 186.886 22.4167 186.073 23.8125C185.271 25.1979 184.787 26.0104 184.62 26.25ZM199.22 27.8594C199.22 28.9948 198.944 29.8385 198.392 30.3906C197.84 30.9323 196.996 31.2031 195.861 31.2031C193.673 31.2031 192.58 30.0677 192.58 27.7969C192.58 26.9844 192.746 26.2708 193.08 25.6562C193.413 25.0417 193.871 24.6875 194.455 24.5938C193.861 24.5833 193.413 24.3646 193.111 23.9375C192.809 23.5104 192.658 22.9792 192.658 22.3438C192.658 21.3646 192.923 20.5938 193.455 20.0312C193.996 19.4688 194.762 19.1875 195.752 19.1875C196.793 19.1875 197.611 19.4479 198.205 19.9688C198.798 20.4896 199.095 21.2917 199.095 22.375C199.095 23.0104 198.944 23.5417 198.642 23.9688C198.34 24.3958 197.892 24.6146 197.298 24.625C197.903 24.7188 198.371 25.0781 198.705 25.7031C199.048 26.3281 199.22 27.0469 199.22 27.8594ZM196.033 30.0781C196.616 30.0781 197.101 29.8542 197.486 29.4062C197.871 28.9479 198.064 28.4062 198.064 27.7812C198.064 27.1562 197.851 26.6198 197.423 26.1719C196.996 25.7135 196.423 25.4792 195.705 25.4688C195.08 25.6562 194.611 25.9531 194.298 26.3594C193.986 26.7552 193.83 27.2031 193.83 27.7031C193.83 28.3281 194.038 28.8802 194.455 29.3594C194.871 29.8385 195.397 30.0781 196.033 30.0781ZM196.033 20.0469C195.335 20.099 194.804 20.3281 194.439 20.7344C194.074 21.1406 193.892 21.6094 193.892 22.1406C193.892 22.6823 194.064 23.151 194.408 23.5469C194.762 23.9427 195.231 24.1406 195.814 24.1406C196.491 24.1302 197.007 23.9479 197.361 23.5938C197.715 23.2292 197.892 22.7917 197.892 22.2812C197.892 21.7708 197.72 21.2969 197.377 20.8594C197.043 20.4219 196.595 20.151 196.033 20.0469Z" fill="#011120"/>
<path d="M19.0453 18.7812L19.7484 18.5938C19.7484 18.9271 19.7536 19.1146 19.7641 19.1562C20.3578 18.7604 21.1911 18.5625 22.2641 18.5625C23.4203 18.5625 24.2849 18.9271 24.8578 19.6562C25.4307 20.375 25.7172 21.3854 25.7172 22.6875C25.7172 23.8438 25.4359 24.8021 24.8734 25.5625C24.3109 26.3229 23.462 26.7031 22.3266 26.7031C22.1391 26.7031 21.3891 26.6406 20.0766 26.5156C20.0974 27.276 20.1391 28.4583 20.2016 30.0625C20.1078 30.3854 19.9255 30.5469 19.6547 30.5469C19.4672 30.5469 19.2849 30.4688 19.1078 30.3125C18.9411 30.1667 18.837 29.9844 18.7953 29.7656C18.8266 28.8906 18.8578 27.1875 18.8891 24.6562C18.9307 22.125 18.9828 20.1667 19.0453 18.7812ZM19.9047 20.2031L20.0297 25.0781C20.6026 25.3906 21.2641 25.5469 22.0141 25.5469C22.7328 25.5469 23.3422 25.276 23.8422 24.7344C24.3422 24.1927 24.5922 23.5312 24.5922 22.75C24.5922 21.9062 24.3318 21.1458 23.8109 20.4688C23.2901 19.7917 22.6391 19.4531 21.8578 19.4531C21.2224 19.4531 20.5714 19.7031 19.9047 20.2031ZM28.6141 24.7656C28.6141 24.4115 28.6141 24.1458 28.6141 23.9688C28.6141 23.7812 28.6193 23.5 28.6297 23.125C28.6505 22.75 28.6714 22.4531 28.6922 22.2344C28.7234 22.0156 28.7651 21.7344 28.8172 21.3906C28.8693 21.0365 28.937 20.7552 29.0203 20.5469C29.1036 20.3281 29.1974 20.0833 29.3016 19.8125C29.4161 19.5417 29.5568 19.3229 29.7234 19.1562C29.8901 18.9896 30.0724 18.8333 30.2703 18.6875C30.4682 18.5312 30.7026 18.4167 30.9734 18.3438C31.2443 18.2708 31.5411 18.2344 31.8641 18.2344C32.5099 18.2344 33.0724 18.3646 33.5516 18.625C34.0307 18.875 34.4057 19.1927 34.6766 19.5781C34.9474 19.9635 35.1609 20.4375 35.3172 21C35.4839 21.5625 35.588 22.099 35.6297 22.6094C35.6818 23.1198 35.7078 23.6823 35.7078 24.2969C35.7078 24.7135 35.6974 25.0885 35.6766 25.4219C35.6661 25.7552 35.6349 26.1354 35.5828 26.5625C35.5411 26.9792 35.4734 27.349 35.3797 27.6719C35.2964 27.9948 35.1766 28.3229 35.0203 28.6562C34.8641 28.9792 34.6766 29.25 34.4578 29.4688C34.2495 29.6771 33.9839 29.849 33.6609 29.9844C33.338 30.1198 32.9786 30.1875 32.5828 30.1875C31.937 30.1875 31.3797 30.1094 30.9109 29.9531C30.4526 29.7969 30.0724 29.5781 29.7703 29.2969C29.4786 29.0156 29.2443 28.6458 29.0672 28.1875C28.9005 27.7292 28.7807 27.2292 28.7078 26.6875C28.6453 26.1458 28.6141 25.5052 28.6141 24.7656ZM34.5828 24.8906C34.5828 24.3802 34.5411 23.849 34.4578 23.2969C34.3849 22.7448 34.2547 22.151 34.0672 21.5156C33.8901 20.8802 33.6036 20.3646 33.2078 19.9688C32.812 19.5625 32.338 19.3594 31.7859 19.3594C31.3693 19.3594 30.9995 19.6406 30.6766 20.2031C30.3641 20.7552 30.1401 21.3802 30.0047 22.0781C29.8693 22.7656 29.8016 23.4167 29.8016 24.0312C29.8016 24.4583 29.8016 24.7865 29.8016 25.0156C29.812 25.2344 29.8328 25.5521 29.8641 25.9688C29.8953 26.375 29.937 26.6979 29.9891 26.9375C30.0516 27.1771 30.1453 27.4531 30.2703 27.7656C30.3953 28.0781 30.5411 28.3229 30.7078 28.5C30.8849 28.6667 31.1089 28.8177 31.3797 28.9531C31.6609 29.0781 31.9734 29.1458 32.3172 29.1562C33.0776 29.1146 33.6453 28.6875 34.0203 27.875C34.3953 27.0625 34.5828 26.0677 34.5828 24.8906ZM45.7297 19.6875L45.1047 20.4062C44.2922 19.8021 43.4901 19.5 42.6984 19.5C42.1776 19.5 41.7297 19.625 41.3547 19.875C40.9797 20.125 40.6932 20.4271 40.4953 20.7812C40.3078 21.1354 40.1568 21.5833 40.0422 22.125C39.938 22.6667 39.8703 23.1354 39.8391 23.5312C39.8182 23.9271 39.8078 24.3906 39.8078 24.9219C39.8078 25.4427 39.9016 26.0365 40.0891 26.7031C40.287 27.3594 40.6151 27.974 41.0734 28.5469C41.5318 29.1198 42.063 29.4062 42.6672 29.4062C43.3234 29.4062 44.3286 29.0625 45.6828 28.375C45.8182 28.5729 45.9953 28.901 46.2141 29.3594C44.9016 30.2656 43.7297 30.7188 42.6984 30.7188C42.0318 30.7188 41.4224 30.5156 40.8703 30.1094C40.3182 29.7031 39.8807 29.1875 39.5578 28.5625C39.2453 27.9375 39.0005 27.2865 38.8234 26.6094C38.6568 25.9219 38.5734 25.2708 38.5734 24.6562C38.5734 23.9792 38.6255 23.3229 38.7297 22.6875C38.8339 22.0417 39.0109 21.3958 39.2609 20.75C39.5109 20.1042 39.8859 19.5833 40.3859 19.1875C40.8964 18.7917 41.5005 18.5938 42.1984 18.5938C42.8026 18.5938 43.4276 18.6979 44.0734 18.9062C44.7193 19.1146 45.2714 19.375 45.7297 19.6875ZM48.1266 19.5156L47.9703 18.8125L53.9391 18.4688C54.1995 18.4792 54.4182 18.5729 54.5953 18.75C54.7724 18.9271 54.8609 19.1198 54.8609 19.3281C54.8609 19.4635 54.8089 19.5833 54.7047 19.6875C54.6005 19.7917 54.4443 19.8542 54.2359 19.875L51.6109 19.7344C51.8714 23.4115 52.0641 26.7552 52.1891 29.7656C52.0953 30.0781 51.9182 30.2344 51.6578 30.2344C51.4703 30.2344 51.288 30.1562 51.1109 30C50.9339 29.8542 50.8245 29.6719 50.7828 29.4531C50.8036 28.8906 50.8141 28.0365 50.8141 26.8906C50.8141 26.4635 50.8089 25.8229 50.7984 24.9688C50.7984 24.1146 50.7984 23.474 50.7984 23.0469C50.7984 21.8073 50.8193 20.6875 50.8609 19.6875C49.6839 19.6042 48.7724 19.5469 48.1266 19.5156ZM56.5547 24.7656C56.5547 24.4115 56.5547 24.1458 56.5547 23.9688C56.5547 23.7812 56.5599 23.5 56.5703 23.125C56.5911 22.75 56.612 22.4531 56.6328 22.2344C56.6641 22.0156 56.7057 21.7344 56.7578 21.3906C56.8099 21.0365 56.8776 20.7552 56.9609 20.5469C57.0443 20.3281 57.138 20.0833 57.2422 19.8125C57.3568 19.5417 57.4974 19.3229 57.6641 19.1562C57.8307 18.9896 58.013 18.8333 58.2109 18.6875C58.4089 18.5312 58.6432 18.4167 58.9141 18.3438C59.1849 18.2708 59.4818 18.2344 59.8047 18.2344C60.4505 18.2344 61.013 18.3646 61.4922 18.625C61.9714 18.875 62.3464 19.1927 62.6172 19.5781C62.888 19.9635 63.1016 20.4375 63.2578 21C63.4245 21.5625 63.5286 22.099 63.5703 22.6094C63.6224 23.1198 63.6484 23.6823 63.6484 24.2969C63.6484 24.7135 63.638 25.0885 63.6172 25.4219C63.6068 25.7552 63.5755 26.1354 63.5234 26.5625C63.4818 26.9792 63.4141 27.349 63.3203 27.6719C63.237 27.9948 63.1172 28.3229 62.9609 28.6562C62.8047 28.9792 62.6172 29.25 62.3984 29.4688C62.1901 29.6771 61.9245 29.849 61.6016 29.9844C61.2786 30.1198 60.9193 30.1875 60.5234 30.1875C59.8776 30.1875 59.3203 30.1094 58.8516 29.9531C58.3932 29.7969 58.013 29.5781 57.7109 29.2969C57.4193 29.0156 57.1849 28.6458 57.0078 28.1875C56.8411 27.7292 56.7214 27.2292 56.6484 26.6875C56.5859 26.1458 56.5547 25.5052 56.5547 24.7656ZM62.5234 24.8906C62.5234 24.3802 62.4818 23.849 62.3984 23.2969C62.3255 22.7448 62.1953 22.151 62.0078 21.5156C61.8307 20.8802 61.5443 20.3646 61.1484 19.9688C60.7526 19.5625 60.2786 19.3594 59.7266 19.3594C59.3099 19.3594 58.9401 19.6406 58.6172 20.2031C58.3047 20.7552 58.0807 21.3802 57.9453 22.0781C57.8099 22.7656 57.7422 23.4167 57.7422 24.0312C57.7422 24.4583 57.7422 24.7865 57.7422 25.0156C57.7526 25.2344 57.7734 25.5521 57.8047 25.9688C57.8359 26.375 57.8776 26.6979 57.9297 26.9375C57.9922 27.1771 58.0859 27.4531 58.2109 27.7656C58.3359 28.0781 58.4818 28.3229 58.6484 28.5C58.8255 28.6667 59.0495 28.8177 59.3203 28.9531C59.6016 29.0781 59.9141 29.1458 60.2578 29.1562C61.0182 29.1146 61.5859 28.6875 61.9609 27.875C62.3359 27.0625 62.5234 26.0677 62.5234 24.8906ZM66.5141 29.5938L66.5922 18.5938C66.7068 18.2083 67.1547 18.0156 67.9359 18.0156C68.6547 18.0156 69.3161 18.1146 69.9203 18.3125C70.5245 18.5 71.0297 18.8229 71.4359 19.2812C71.8526 19.7292 72.0609 20.2708 72.0609 20.9062C72.0609 21.4062 71.9359 21.8906 71.6859 22.3594C71.4464 22.8281 71.1495 23.1302 70.7953 23.2656C71.462 23.3594 71.9984 23.7604 72.4047 24.4688C72.8109 25.1771 73.0141 26.0156 73.0141 26.9844C73.0141 27.6406 72.7536 28.2135 72.2328 28.7031C71.712 29.1823 71.1026 29.5312 70.4047 29.75C69.7172 29.9583 69.0193 30.0625 68.3109 30.0625C67.4464 30.0625 66.8474 29.9062 66.5141 29.5938ZM67.7953 24.125C67.7953 24.8438 67.7849 26.2865 67.7641 28.4531C68.0766 28.8073 68.4776 28.9844 68.9672 28.9844C69.613 28.9844 70.238 28.7188 70.8422 28.1875C71.4464 27.6458 71.7484 27.0677 71.7484 26.4531C71.7484 25.6927 71.4932 25.099 70.9828 24.6719C70.4724 24.2448 69.8161 24.0312 69.0141 24.0312C68.4828 24.0312 68.0766 24.0625 67.7953 24.125ZM67.7641 22.9688L68.7328 22.9531C69.3995 22.9531 69.9099 22.7604 70.2641 22.375C70.6286 21.9792 70.8109 21.5104 70.8109 20.9688C70.8109 20.4167 70.6286 19.9427 70.2641 19.5469C69.8995 19.1406 69.3943 18.9375 68.7484 18.9375C68.4568 18.9375 68.113 19 67.7172 19.125C67.738 19.7604 67.7484 20.5469 67.7484 21.4844C67.7589 22.4219 67.7641 22.9167 67.7641 22.9688ZM76.0984 18.5156L76.8016 18.6719C76.812 18.8698 76.8797 20.4271 77.0047 23.3438C77.2859 23.3021 77.5984 23.2812 77.9422 23.2812C79.3172 23.2812 80.4422 23.6719 81.3172 24.4531C82.1922 25.224 82.6297 26.1302 82.6297 27.1719C82.6297 29.2865 81.3224 30.3438 78.7078 30.3438C78.0307 30.3438 77.4109 30.2917 76.8484 30.1875C76.2859 30.0833 75.963 29.9531 75.8797 29.7969C75.9109 28.9219 75.937 27.151 75.9578 24.4844C75.9786 21.8073 76.0255 19.8177 76.0984 18.5156ZM77.0828 24.5156C77.1557 26.7344 77.2078 28.2135 77.2391 28.9531C77.9578 29.0469 78.588 29.0938 79.1297 29.0938C80.588 29.0938 81.3172 28.401 81.3172 27.0156C81.3172 26.2969 81.0047 25.6927 80.3797 25.2031C79.7651 24.7031 78.9526 24.4531 77.9422 24.4531C77.6297 24.4531 77.3432 24.474 77.0828 24.5156ZM84.4422 18.625L85.1453 18.7812C85.1766 19.2708 85.3068 22.9583 85.5359 29.8438C85.4422 30.1562 85.2651 30.3125 85.0047 30.3125C84.8172 30.3125 84.6349 30.2344 84.4578 30.0781C84.2807 29.9323 84.1714 29.75 84.1297 29.5312C84.1505 28.7812 84.187 27.125 84.2391 24.5625C84.3016 22 84.3693 20.0208 84.4422 18.625ZM94.3703 29.2969L94.5266 30C94.1203 30 93.3807 30.0156 92.3078 30.0469C91.2453 30.0885 90.4745 30.1094 89.9953 30.1094C89.2245 30.1094 88.6984 30.0729 88.4172 30C88.5213 28.8542 88.5838 26.9375 88.6047 24.25C88.6255 21.5625 88.6932 19.6875 88.8078 18.625C89.162 18.6562 90.0995 18.6823 91.6203 18.7031C93.1516 18.724 94.1516 18.7708 94.6203 18.8438L94.7922 19.5469C94.3234 19.6302 93.3859 19.7292 91.9797 19.8438C90.5734 19.9583 89.8338 20.0208 89.7609 20.0312C89.7713 20.2708 89.7922 20.7604 89.8234 21.5C89.8651 22.2396 89.8911 22.849 89.9016 23.3281C90.2557 23.3698 90.9016 23.4323 91.8391 23.5156C92.7766 23.5885 93.3703 23.6354 93.6203 23.6562L93.7766 24.375C91.5786 24.5729 90.2922 24.6771 89.9172 24.6875C89.9172 25.1458 89.9068 25.8438 89.8859 26.7812C89.8755 27.7083 89.8703 28.3906 89.8703 28.8281C92.2557 29.0469 93.7557 29.2031 94.3703 29.2969ZM110.57 29.6562L110.617 30.25C110.065 30.4167 109.539 30.5 109.039 30.5C108.56 30.5 108.148 30.3698 107.805 30.1094C107.471 29.8594 107.216 29.5417 107.039 29.1562C106.872 28.7708 106.701 28.3542 106.523 27.9062C106.357 27.4583 106.195 27.0417 106.039 26.6562C105.893 26.2708 105.674 25.9531 105.383 25.7031C105.091 25.4427 104.742 25.3125 104.336 25.3125L104.492 29.9062C104.398 30.2292 104.216 30.3906 103.945 30.3906C103.758 30.3906 103.576 30.3125 103.398 30.1562C103.232 30 103.128 29.8125 103.086 29.5938C103.096 29.375 103.133 27.6146 103.195 24.3125C103.258 21 103.305 19.0833 103.336 18.5625L104.039 18.7188C104.049 19.1146 104.081 19.8594 104.133 20.9531C104.185 22.0365 104.216 22.7708 104.227 23.1562C104.674 23.1458 105.055 22.9792 105.367 22.6562C105.69 22.3229 105.951 21.9219 106.148 21.4531C106.357 20.9844 106.565 20.5208 106.773 20.0625C106.982 19.5938 107.253 19.1979 107.586 18.875C107.93 18.5417 108.336 18.375 108.805 18.375C109.159 18.375 109.758 18.4531 110.602 18.6094L110.445 19.2344C109.799 19.1302 109.43 19.0781 109.336 19.0781C108.971 19.0781 108.664 19.2292 108.414 19.5312C108.164 19.8333 107.956 20.2135 107.789 20.6719C107.622 21.1198 107.44 21.5833 107.242 22.0625C107.044 22.5312 106.753 22.9635 106.367 23.3594C105.982 23.7552 105.508 24.0208 104.945 24.1562C105.445 24.2708 105.878 24.4948 106.242 24.8281C106.607 25.1615 106.878 25.5365 107.055 25.9531C107.232 26.3698 107.404 26.8125 107.57 27.2812C107.737 27.7396 107.883 28.1562 108.008 28.5312C108.133 28.9062 108.305 29.2188 108.523 29.4688C108.753 29.7188 109.029 29.8438 109.352 29.8438C109.664 29.8438 110.07 29.7812 110.57 29.6562ZM112.092 24.7656C112.092 24.4115 112.092 24.1458 112.092 23.9688C112.092 23.7812 112.097 23.5 112.108 23.125C112.129 22.75 112.149 22.4531 112.17 22.2344C112.202 22.0156 112.243 21.7344 112.295 21.3906C112.347 21.0365 112.415 20.7552 112.498 20.5469C112.582 20.3281 112.676 20.0833 112.78 19.8125C112.894 19.5417 113.035 19.3229 113.202 19.1562C113.368 18.9896 113.551 18.8333 113.748 18.6875C113.946 18.5312 114.181 18.4167 114.452 18.3438C114.722 18.2708 115.019 18.2344 115.342 18.2344C115.988 18.2344 116.551 18.3646 117.03 18.625C117.509 18.875 117.884 19.1927 118.155 19.5781C118.426 19.9635 118.639 20.4375 118.795 21C118.962 21.5625 119.066 22.099 119.108 22.6094C119.16 23.1198 119.186 23.6823 119.186 24.2969C119.186 24.7135 119.176 25.0885 119.155 25.4219C119.144 25.7552 119.113 26.1354 119.061 26.5625C119.019 26.9792 118.952 27.349 118.858 27.6719C118.774 27.9948 118.655 28.3229 118.498 28.6562C118.342 28.9792 118.155 29.25 117.936 29.4688C117.728 29.6771 117.462 29.849 117.139 29.9844C116.816 30.1198 116.457 30.1875 116.061 30.1875C115.415 30.1875 114.858 30.1094 114.389 29.9531C113.931 29.7969 113.551 29.5781 113.248 29.2969C112.957 29.0156 112.722 28.6458 112.545 28.1875C112.379 27.7292 112.259 27.2292 112.186 26.6875C112.123 26.1458 112.092 25.5052 112.092 24.7656ZM118.061 24.8906C118.061 24.3802 118.019 23.849 117.936 23.2969C117.863 22.7448 117.733 22.151 117.545 21.5156C117.368 20.8802 117.082 20.3646 116.686 19.9688C116.29 19.5625 115.816 19.3594 115.264 19.3594C114.847 19.3594 114.478 19.6406 114.155 20.2031C113.842 20.7552 113.618 21.3802 113.483 22.0781C113.347 22.7656 113.28 23.4167 113.28 24.0312C113.28 24.4583 113.28 24.7865 113.28 25.0156C113.29 25.2344 113.311 25.5521 113.342 25.9688C113.373 26.375 113.415 26.6979 113.467 26.9375C113.53 27.1771 113.623 27.4531 113.748 27.7656C113.873 28.0781 114.019 28.3229 114.186 28.5C114.363 28.6667 114.587 28.8177 114.858 28.9531C115.139 29.0781 115.452 29.1458 115.795 29.1562C116.556 29.1146 117.123 28.6875 117.498 27.875C117.873 27.0625 118.061 26.0677 118.061 24.8906ZM129.208 19.6875L128.583 20.4062C127.77 19.8021 126.968 19.5 126.177 19.5C125.656 19.5 125.208 19.625 124.833 19.875C124.458 20.125 124.171 20.4271 123.973 20.7812C123.786 21.1354 123.635 21.5833 123.52 22.125C123.416 22.6667 123.348 23.1354 123.317 23.5312C123.296 23.9271 123.286 24.3906 123.286 24.9219C123.286 25.4427 123.38 26.0365 123.567 26.7031C123.765 27.3594 124.093 27.974 124.552 28.5469C125.01 29.1198 125.541 29.4062 126.145 29.4062C126.802 29.4062 127.807 29.0625 129.161 28.375C129.296 28.5729 129.473 28.901 129.692 29.3594C128.38 30.2656 127.208 30.7188 126.177 30.7188C125.51 30.7188 124.901 30.5156 124.348 30.1094C123.796 29.7031 123.359 29.1875 123.036 28.5625C122.723 27.9375 122.479 27.2865 122.302 26.6094C122.135 25.9219 122.052 25.2708 122.052 24.6562C122.052 23.9792 122.104 23.3229 122.208 22.6875C122.312 22.0417 122.489 21.3958 122.739 20.75C122.989 20.1042 123.364 19.5833 123.864 19.1875C124.374 18.7917 124.979 18.5938 125.677 18.5938C126.281 18.5938 126.906 18.6979 127.552 18.9062C128.197 19.1146 128.749 19.375 129.208 19.6875ZM131.605 19.5156L131.448 18.8125L137.417 18.4688C137.678 18.4792 137.896 18.5729 138.073 18.75C138.251 18.9271 138.339 19.1198 138.339 19.3281C138.339 19.4635 138.287 19.5833 138.183 19.6875C138.079 19.7917 137.922 19.8542 137.714 19.875L135.089 19.7344C135.349 23.4115 135.542 26.7552 135.667 29.7656C135.573 30.0781 135.396 30.2344 135.136 30.2344C134.948 30.2344 134.766 30.1562 134.589 30C134.412 29.8542 134.303 29.6719 134.261 29.4531C134.282 28.8906 134.292 28.0365 134.292 26.8906C134.292 26.4635 134.287 25.8229 134.277 24.9688C134.277 24.1146 134.277 23.474 134.277 23.0469C134.277 21.8073 134.297 20.6875 134.339 19.6875C133.162 19.6042 132.251 19.5469 131.605 19.5156ZM140.783 18.5781L141.486 18.7344C141.632 21.0781 141.731 22.9635 141.783 24.3906L143.58 24.0938C143.632 22.5417 143.752 21.4271 143.939 20.75C144.377 19.2083 145.298 18.4375 146.705 18.4375C147.288 18.4375 147.809 18.5833 148.267 18.875C148.726 19.1562 149.09 19.5156 149.361 19.9531C149.642 20.3906 149.871 20.901 150.048 21.4844C150.236 22.0677 150.361 22.6302 150.423 23.1719C150.496 23.7135 150.533 24.2552 150.533 24.7969C150.533 25.3906 150.502 25.9323 150.439 26.4219C150.387 26.9115 150.272 27.401 150.095 27.8906C149.918 28.3802 149.684 28.7917 149.392 29.125C149.111 29.4583 148.72 29.7292 148.22 29.9375C147.731 30.1458 147.158 30.25 146.502 30.25C144.418 30.25 143.377 29.0104 143.377 26.5312C143.377 26.1562 143.392 25.7812 143.423 25.4062L141.814 25.1719L141.986 29.6562C141.892 29.9792 141.71 30.1406 141.439 30.1406C141.252 30.1406 141.069 30.0677 140.892 29.9219C140.726 29.7656 140.621 29.5781 140.58 29.3594C140.611 28.4844 140.632 26.7917 140.642 24.2812C140.663 21.7604 140.71 19.8594 140.783 18.5781ZM144.533 25.2188C144.564 25.9062 144.632 26.5312 144.736 27.0938C144.84 27.6458 145.017 28.1406 145.267 28.5781C145.517 29.0156 145.824 29.2344 146.189 29.2344C146.783 29.2344 147.293 29.1094 147.72 28.8594C148.158 28.6094 148.486 28.2656 148.705 27.8281C148.934 27.3906 149.095 26.9271 149.189 26.4375C149.293 25.9375 149.345 25.3906 149.345 24.7969C149.345 24.2552 149.304 23.7135 149.22 23.1719C149.147 22.6198 149.022 22.0521 148.845 21.4688C148.679 20.875 148.413 20.3958 148.048 20.0312C147.694 19.6667 147.272 19.4844 146.783 19.4844C146.397 19.4844 146.054 19.6823 145.752 20.0781C145.449 20.474 145.215 20.9792 145.048 21.5938C144.882 22.2083 144.757 22.8281 144.673 23.4531C144.59 24.0677 144.543 24.6562 144.533 25.2188ZM164.258 30L163.07 30.1094C162.497 26.5156 161.878 23.4375 161.211 20.875C160.867 21.6875 160.487 22.8333 160.07 24.3125C159.664 25.7812 159.383 26.7344 159.227 27.1719C159.206 27.1719 159.169 27.1771 159.117 27.1875C159.076 27.1875 159.039 27.1875 159.008 27.1875C158.862 27.1875 158.622 27.1719 158.289 27.1406C157.956 27.1094 157.742 27.0938 157.648 27.0938C157.638 26.7917 157.372 25.7865 156.852 24.0781C156.331 22.3594 156.018 21.2604 155.914 20.7812C155.727 22.4688 154.997 25.5417 153.727 30L152.758 29.9062C152.904 28.7708 153.263 26.9844 153.836 24.5469C154.409 22.1094 154.747 20.224 154.852 18.8906C155.039 18.8698 155.19 18.8594 155.305 18.8594C155.409 18.8594 155.794 18.901 156.461 18.9844C156.607 19.0052 156.815 19.4792 157.086 20.4062C157.367 21.3229 157.648 22.3333 157.93 23.4375C158.211 24.5417 158.388 25.1927 158.461 25.3906C158.753 24.6719 159.102 23.5052 159.508 21.8906C159.924 20.276 160.216 19.25 160.383 18.8125C160.549 18.8229 161.076 18.8698 161.961 18.9531C162.232 20.0052 162.492 21.1406 162.742 22.3594C163.003 23.5781 163.279 24.9635 163.57 26.5156C163.872 28.0677 164.102 29.2292 164.258 30ZM166.717 18.5156L167.42 18.6719C167.431 18.8698 167.498 20.4271 167.623 23.3438C167.905 23.3021 168.217 23.2812 168.561 23.2812C169.936 23.2812 171.061 23.6719 171.936 24.4531C172.811 25.224 173.248 26.1302 173.248 27.1719C173.248 29.2865 171.941 30.3438 169.327 30.3438C168.649 30.3438 168.03 30.2917 167.467 30.1875C166.905 30.0833 166.582 29.9531 166.498 29.7969C166.53 28.9219 166.556 27.151 166.577 24.4844C166.597 21.8073 166.644 19.8177 166.717 18.5156ZM167.702 24.5156C167.774 26.7344 167.827 28.2135 167.858 28.9531C168.577 29.0469 169.207 29.0938 169.748 29.0938C171.207 29.0938 171.936 28.401 171.936 27.0156C171.936 26.2969 171.623 25.6927 170.998 25.2031C170.384 24.7031 169.571 24.4531 168.561 24.4531C168.248 24.4531 167.962 24.474 167.702 24.5156ZM175.061 18.625L175.764 18.7812C175.795 19.2708 175.926 22.9583 176.155 29.8438C176.061 30.1562 175.884 30.3125 175.623 30.3125C175.436 30.3125 175.254 30.2344 175.077 30.0781C174.899 29.9323 174.79 29.75 174.748 29.5312C174.769 28.7812 174.806 27.125 174.858 24.5625C174.92 22 174.988 20.0208 175.061 18.625ZM190.87 25.4531L191.027 26.1562C190.485 26.2188 190.099 26.2604 189.87 26.2812C189.891 26.7604 189.917 27.3646 189.948 28.0938C189.99 28.8229 190.016 29.4219 190.027 29.8906C189.933 30.2135 189.756 30.375 189.495 30.375C189.308 30.375 189.126 30.2969 188.948 30.1406C188.771 29.9844 188.662 29.7969 188.62 29.5781C188.631 29.2552 188.667 28.1927 188.73 26.3906C188.396 26.4115 188.131 26.4219 187.933 26.4219C187.62 26.4219 187.136 26.4062 186.48 26.375C185.834 26.3333 185.36 26.3125 185.058 26.3125C184.912 26.3125 184.714 26.3229 184.464 26.3438C184.485 26.0938 184.495 25.9219 184.495 25.8281C184.495 25.7656 184.49 25.6667 184.48 25.5312C184.48 25.3854 184.48 25.276 184.48 25.2031C186.219 22.276 187.626 20.1042 188.698 18.6875C189.021 18.6875 189.464 18.7552 190.027 18.8906C190.006 19.3802 189.974 20.4427 189.933 22.0781C189.902 23.7031 189.87 24.8021 189.839 25.375C190.297 25.3958 190.641 25.4219 190.87 25.4531ZM185.62 25.25L188.761 25.3438C188.792 24.75 188.823 23.8698 188.855 22.7031C188.886 21.5365 188.912 20.6562 188.933 20.0625C188.506 20.5 187.886 21.4167 187.073 22.8125C186.271 24.1979 185.787 25.0104 185.62 25.25ZM200.22 26.8594C200.22 27.9948 199.944 28.8385 199.392 29.3906C198.84 29.9323 197.996 30.2031 196.861 30.2031C194.673 30.2031 193.58 29.0677 193.58 26.7969C193.58 25.9844 193.746 25.2708 194.08 24.6562C194.413 24.0417 194.871 23.6875 195.455 23.5938C194.861 23.5833 194.413 23.3646 194.111 22.9375C193.809 22.5104 193.658 21.9792 193.658 21.3438C193.658 20.3646 193.923 19.5938 194.455 19.0312C194.996 18.4688 195.762 18.1875 196.752 18.1875C197.793 18.1875 198.611 18.4479 199.205 18.9688C199.798 19.4896 200.095 20.2917 200.095 21.375C200.095 22.0104 199.944 22.5417 199.642 22.9688C199.34 23.3958 198.892 23.6146 198.298 23.625C198.903 23.7188 199.371 24.0781 199.705 24.7031C200.048 25.3281 200.22 26.0469 200.22 26.8594ZM197.033 29.0781C197.616 29.0781 198.101 28.8542 198.486 28.4062C198.871 27.9479 199.064 27.4062 199.064 26.7812C199.064 26.1562 198.851 25.6198 198.423 25.1719C197.996 24.7135 197.423 24.4792 196.705 24.4688C196.08 24.6562 195.611 24.9531 195.298 25.3594C194.986 25.7552 194.83 26.2031 194.83 26.7031C194.83 27.3281 195.038 27.8802 195.455 28.3594C195.871 28.8385 196.397 29.0781 197.033 29.0781ZM197.033 19.0469C196.335 19.099 195.804 19.3281 195.439 19.7344C195.074 20.1406 194.892 20.6094 194.892 21.1406C194.892 21.6823 195.064 22.151 195.408 22.5469C195.762 22.9427 196.231 23.1406 196.814 23.1406C197.491 23.1302 198.007 22.9479 198.361 22.5938C198.715 22.2292 198.892 21.7917 198.892 21.2812C198.892 20.7708 198.72 20.2969 198.377 19.8594C198.043 19.4219 197.595 19.151 197.033 19.0469Z" fill="#011120"/>
</svg>
